STARTFONT 2.1
COMMENT
COMMENT Converted from OpenType font "Oxanium-Bold.ttf" by "otf2bdf 3.0".
COMMENT
FONT -FreeType-Oxanium-Bold-R-Normal--21-210-72-72-P-97-ISO10646-1
SIZE 21 72 72
FONTBOUNDINGBOX 35 27 -10 -5
STARTPROPERTIES 19
FOUNDRY "FreeType"
FAMILY_NAME "Oxanium"
WEIGHT_NAME "Bold"
SLANT "R"
SETWIDTH_NAME "Normal"
ADD_STYLE_NAME ""
PIXEL_SIZE 21
POINT_SIZE 210
RESOLUTION_X 72
RESOLUTION_Y 72
SPACING "P"
AVERAGE_WIDTH 97
CHARSET_REGISTRY "ISO10646"
CHARSET_ENCODING "1"
FONT_ASCENT 16
FONT_DESCENT 4
COPYRIGHT "Copyright 2019 The Oxanium Project Authors (https://github.com/sevmeyer/oxanium)"
_OTF_FONTFILE "Oxanium-Bold.ttf"
_OTF_PSNAME "Oxanium-Bold"
ENDPROPERTIES
CHARS 357
STARTCHAR 0000
ENCODING 0
SWIDTH 0 0
DWIDTH 0 0
BBX 0 0 0 0
BITMAP
ENDCHAR
STARTCHAR 000D
ENCODING 13
SWIDTH 238 0
DWIDTH 5 0
BBX 0 0 0 0
BITMAP
ENDCHAR
STARTCHAR 0020
ENCODING 32
SWIDTH 238 0
DWIDTH 5 0
BBX 0 0 0 0
BITMAP
ENDCHAR
STARTCHAR 0021
ENCODING 33
SWIDTH 285 0
DWIDTH 6 0
BBX 4 15 1 0
BITMAP
E0
E0
E0
E0
E0
E0
E0
E0
E0
E0
E0
00
F0
F0
F0
ENDCHAR
STARTCHAR 0022
ENCODING 34
SWIDTH 476 0
DWIDTH 10 0
BBX 7 6 1 10
BITMAP
E6
E6
E6
E6
E6
E6
ENDCHAR
STARTCHAR 0023
ENCODING 35
SWIDTH 666 0
DWIDTH 14 0
BBX 12 15 1 0
BITMAP
39C0
39C0
39C0
39C0
FFF0
FFF0
39C0
39C0
39C0
FFF0
FFF0
39C0
39C0
39C0
39C0
ENDCHAR
STARTCHAR 0024
ENCODING 36
SWIDTH 571 0
DWIDTH 12 0
BBX 10 20 1 -3
BITMAP
0C00
0C00
0C00
3F80
7FC0
FFC0
E000
E000
F800
7F80
3FC0
03C0
01C0
01C0
FFC0
FF80
7F80
0C00
0C00
0C00
ENDCHAR
STARTCHAR 0025
ENCODING 37
SWIDTH 904 0
DWIDTH 19 0
BBX 17 15 1 0
BITMAP
783000
FC3800
CC7000
CC7000
CCE000
CCE000
CDDF00
FDDF80
7B9980
039980
071980
071980
0E1980
0E1F80
041F00
ENDCHAR
STARTCHAR 0026
ENCODING 38
SWIDTH 666 0
DWIDTH 14 0
BBX 12 15 1 0
BITMAP
3F80
7F80
7F80
7000
7000
7000
7FF0
3FF0
7FF0
E1C0
E1C0
E1C0
FFC0
7FC0
3FC0
ENDCHAR
STARTCHAR 0027
ENCODING 39
SWIDTH 238 0
DWIDTH 5 0
BBX 3 6 1 10
BITMAP
E0
E0
E0
E0
E0
E0
ENDCHAR
STARTCHAR 0028
ENCODING 40
SWIDTH 333 0
DWIDTH 7 0
BBX 6 20 1 -4
BITMAP
10
1C
38
38
70
70
70
60
E0
E0
E0
E0
60
70
70
70
38
38
1C
10
ENDCHAR
STARTCHAR 0029
ENCODING 41
SWIDTH 333 0
DWIDTH 7 0
BBX 6 20 0 -4
BITMAP
20
F0
70
38
38
38
1C
1C
1C
1C
1C
1C
1C
1C
38
38
38
70
F0
20
ENDCHAR
STARTCHAR 002A
ENCODING 42
SWIDTH 523 0
DWIDTH 11 0
BBX 9 9 1 6
BITMAP
1C00
1C00
DD00
FF80
7F00
3E00
3E00
7700
2200
ENDCHAR
STARTCHAR 002B
ENCODING 43
SWIDTH 571 0
DWIDTH 12 0
BBX 10 10 1 3
BITMAP
0C00
0C00
0C00
0C00
FFC0
FFC0
0C00
0C00
0C00
0C00
ENDCHAR
STARTCHAR 002C
ENCODING 44
SWIDTH 285 0
DWIDTH 6 0
BBX 5 6 0 -3
BITMAP
38
70
70
70
60
E0
ENDCHAR
STARTCHAR 002D
ENCODING 45
SWIDTH 380 0
DWIDTH 8 0
BBX 6 2 1 6
BITMAP
FC
FC
ENDCHAR
STARTCHAR 002E
ENCODING 46
SWIDTH 285 0
DWIDTH 6 0
BBX 4 3 1 0
BITMAP
F0
F0
F0
ENDCHAR
STARTCHAR 002F
ENCODING 47
SWIDTH 428 0
DWIDTH 9 0
BBX 9 17 0 -1
BITMAP
0300
0380
0700
0700
0600
0E00
0E00
0C00
1C00
1C00
3800
3800
3800
7000
7000
6000
E000
ENDCHAR
STARTCHAR 0030
ENCODING 48
SWIDTH 571 0
DWIDTH 12 0
BBX 10 15 1 0
BITMAP
7F80
7FC0
FFC0
E1C0
E1C0
E1C0
E1C0
E1C0
E1C0
E1C0
E1C0
E1C0
FFC0
7FC0
7F80
ENDCHAR
STARTCHAR 0031
ENCODING 49
SWIDTH 571 0
DWIDTH 12 0
BBX 9 15 2 0
BITMAP
7C00
FC00
FC00
1C00
1C00
1C00
1C00
1C00
1C00
1C00
1C00
1C00
FF80
FF80
FF80
ENDCHAR
STARTCHAR 0032
ENCODING 50
SWIDTH 571 0
DWIDTH 12 0
BBX 10 15 1 0
BITMAP
7F80
7FC0
7FC0
01C0
01C0
01C0
1FC0
7F80
FE00
E000
E000
E000
FFC0
FFC0
FFC0
ENDCHAR
STARTCHAR 0033
ENCODING 51
SWIDTH 571 0
DWIDTH 12 0
BBX 10 15 1 0
BITMAP
7F80
7FC0
7FC0
01C0
01C0
01C0
3FC0
3F80
3FC0
01C0
01C0
01C0
FFC0
FFC0
7F80
ENDCHAR
STARTCHAR 0034
ENCODING 52
SWIDTH 571 0
DWIDTH 12 0
BBX 10 15 1 0
BITMAP
0E00
0E00
1E00
1C00
1C00
3800
39C0
71C0
71C0
F1C0
FFC0
FFC0
FFC0
01C0
01C0
ENDCHAR
STARTCHAR 0035
ENCODING 53
SWIDTH 571 0
DWIDTH 12 0
BBX 10 15 1 0
BITMAP
FF80
FF80
FF80
E000
E000
E000
FF80
FFC0
FFC0
01C0
01C0
01C0
FFC0
FFC0
7F80
ENDCHAR
STARTCHAR 0036
ENCODING 54
SWIDTH 571 0
DWIDTH 12 0
BBX 10 15 1 0
BITMAP
3F00
7F80
FF80
E000
E000
E000
FF80
FFC0
FFC0
E1C0
E1C0
E1C0
FFC0
7FC0
7F80
ENDCHAR
STARTCHAR 0037
ENCODING 55
SWIDTH 571 0
DWIDTH 12 0
BBX 10 15 1 0
BITMAP
FFC0
FFC0
FFC0
01C0
01C0
03C0
0380
0780
0700
0F00
0E00
1E00
1C00
3C00
3800
ENDCHAR
STARTCHAR 0038
ENCODING 56
SWIDTH 571 0
DWIDTH 12 0
BBX 10 15 1 0
BITMAP
3F80
7FC0
FFC0
E1C0
E1C0
E1C0
7FC0
7F80
FFC0
E1C0
E1C0
E1C0
FFC0
7FC0
7F80
ENDCHAR
STARTCHAR 0039
ENCODING 57
SWIDTH 571 0
DWIDTH 12 0
BBX 10 15 1 0
BITMAP
7F80
7FC0
FFC0
E1C0
E1C0
E1C0
FFC0
7FC0
7FC0
01C0
01C0
01C0
7FC0
7F80
7F00
ENDCHAR
STARTCHAR 003A
ENCODING 58
SWIDTH 285 0
DWIDTH 6 0
BBX 4 11 1 0
BITMAP
F0
F0
F0
00
00
00
00
00
F0
F0
F0
ENDCHAR
STARTCHAR 003B
ENCODING 59
SWIDTH 285 0
DWIDTH 6 0
BBX 5 14 0 -3
BITMAP
78
78
78
00
00
00
00
00
38
70
70
70
60
E0
ENDCHAR
STARTCHAR 003C
ENCODING 60
SWIDTH 571 0
DWIDTH 12 0
BBX 10 11 1 2
BITMAP
0080
03C0
0F80
3E00
F800
E000
F800
3E00
0F80
03C0
0080
ENDCHAR
STARTCHAR 003D
ENCODING 61
SWIDTH 571 0
DWIDTH 12 0
BBX 10 7 1 4
BITMAP
FFC0
FFC0
0000
0000
0000
FFC0
FFC0
ENDCHAR
STARTCHAR 003E
ENCODING 62
SWIDTH 571 0
DWIDTH 12 0
BBX 10 11 1 2
BITMAP
4000
F000
7C00
1F00
07C0
01C0
07C0
1F00
7C00
F000
4000
ENDCHAR
STARTCHAR 003F
ENCODING 63
SWIDTH 523 0
DWIDTH 11 0
BBX 9 15 1 0
BITMAP
7F00
FF80
FF80
0380
0380
0380
3F80
3F00
3F00
3800
3800
0000
3800
3800
3800
ENDCHAR
STARTCHAR 0040
ENCODING 64
SWIDTH 809 0
DWIDTH 17 0
BBX 13 17 2 -2
BITMAP
7FF8
FFF8
C018
C018
C3F8
C7F8
CFF8
CE38
CE38
CE38
CFF8
C7F8
C3F8
C000
C000
FFF8
7FF0
ENDCHAR
STARTCHAR 0041
ENCODING 65
SWIDTH 666 0
DWIDTH 14 0
BBX 14 15 0 0
BITMAP
0780
0FC0
0FC0
0FC0
1CE0
1CE0
1CE0
3870
3870
3FF0
3FF0
7FF8
7038
7038
E01C
ENDCHAR
STARTCHAR 0042
ENCODING 66
SWIDTH 666 0
DWIDTH 14 0
BBX 11 15 2 0
BITMAP
FF80
FFC0
FFC0
E1C0
E1C0
E1C0
FFC0
FF80
FFC0
E1E0
E1E0
E1E0
FFC0
FFC0
FF80
ENDCHAR
STARTCHAR 0043
ENCODING 67
SWIDTH 619 0
DWIDTH 13 0
BBX 10 15 2 0
BITMAP
7F80
FFC0
FFC0
E000
E000
E000
E000
E000
E000
E000
E000
E000
FFC0
FFC0
7F80
ENDCHAR
STARTCHAR 0044
ENCODING 68
SWIDTH 666 0
DWIDTH 14 0
BBX 11 15 2 0
BITMAP
FF00
FFC0
FFC0
E1E0
E0E0
E0E0
E0E0
E0E0
E0E0
E0E0
E0E0
E1E0
FFC0
FFC0
FF00
ENDCHAR
STARTCHAR 0045
ENCODING 69
SWIDTH 619 0
DWIDTH 13 0
BBX 10 15 2 0
BITMAP
FFC0
FFC0
FFC0
E000
E000
E000
FF80
FF80
FF80
E000
E000
E000
FFC0
FFC0
FFC0
ENDCHAR
STARTCHAR 0046
ENCODING 70
SWIDTH 571 0
DWIDTH 12 0
BBX 10 15 2 0
BITMAP
FFC0
FFC0
FFC0
E000
E000
E000
FF80
FF80
FF80
E000
E000
E000
E000
E000
E000
ENDCHAR
STARTCHAR 0047
ENCODING 71
SWIDTH 666 0
DWIDTH 14 0
BBX 11 15 2 0
BITMAP
7FC0
FFE0
FFE0
E000
E000
E000
E7E0
E7E0
E7E0
E0E0
E0E0
E0E0
FFE0
FFE0
7FE0
ENDCHAR
STARTCHAR 0048
ENCODING 72
SWIDTH 714 0
DWIDTH 15 0
BBX 11 15 2 0
BITMAP
E0E0
E0E0
E0E0
E0E0
E0E0
E0E0
FFE0
FFE0
FFE0
E0E0
E0E0
E0E0
E0E0
E0E0
E0E0
ENDCHAR
STARTCHAR 0049
ENCODING 73
SWIDTH 285 0
DWIDTH 6 0
BBX 3 15 2 0
BITMAP
E0
E0
E0
E0
E0
E0
E0
E0
E0
E0
E0
E0
E0
E0
E0
ENDCHAR
STARTCHAR 004A
ENCODING 74
SWIDTH 619 0
DWIDTH 13 0
BBX 10 15 1 0
BITMAP
1FC0
1FC0
1FC0
01C0
01C0
01C0
01C0
01C0
E1C0
E1C0
E1C0
E1C0
FFC0
7FC0
3F80
ENDCHAR
STARTCHAR 004B
ENCODING 75
SWIDTH 666 0
DWIDTH 14 0
BBX 12 15 2 0
BITMAP
E1E0
E1C0
E380
E780
EF00
FE00
FC00
FE00
FF00
E700
E380
E3C0
E1C0
E1E0
E0F0
ENDCHAR
STARTCHAR 004C
ENCODING 76
SWIDTH 571 0
DWIDTH 12 0
BBX 9 15 2 0
BITMAP
E000
E000
E000
E000
E000
E000
E000
E000
E000
E000
E000
E000
FF80
FF80
FF80
ENDCHAR
STARTCHAR 004D
ENCODING 77
SWIDTH 904 0
DWIDTH 19 0
BBX 15 15 2 0
BITMAP
F01E
F01E
F03E
F83E
F87E
FC7E
FC7E
EEEE
EEEE
E7CE
E7CE
E78E
E38E
E00E
E00E
ENDCHAR
STARTCHAR 004E
ENCODING 78
SWIDTH 761 0
DWIDTH 16 0
BBX 12 15 2 0
BITMAP
E070
F070
F070
F870
FC70
FC70
EE70
EE70
E770
E7F0
E3F0
E3F0
E1F0
E0F0
E0F0
ENDCHAR
STARTCHAR 004F
ENCODING 79
SWIDTH 714 0
DWIDTH 15 0
BBX 11 15 2 0
BITMAP
7FC0
FFE0
FFE0
E0E0
E0E0
E0E0
E0E0
E0E0
E0E0
E0E0
E0E0
E0E0
FFE0
FFE0
7FC0
ENDCHAR
STARTCHAR 0050
ENCODING 80
SWIDTH 619 0
DWIDTH 13 0
BBX 10 15 2 0
BITMAP
FF80
FFC0
FFC0
E1C0
E1C0
E1C0
E1C0
FFC0
FFC0
FF80
E000
E000
E000
E000
E000
ENDCHAR
STARTCHAR 0051
ENCODING 81
SWIDTH 714 0
DWIDTH 15 0
BBX 11 18 2 -3
BITMAP
7FC0
FFE0
FFE0
E0E0
E0E0
E0E0
E0E0
E0E0
E0E0
E0E0
E0E0
E0E0
FFE0
FFE0
7FC0
0380
01C0
01C0
ENDCHAR
STARTCHAR 0052
ENCODING 82
SWIDTH 666 0
DWIDTH 14 0
BBX 11 15 2 0
BITMAP
FF80
FFC0
FFC0
E1C0
E1C0
E1C0
E1C0
FFC0
FFC0
FF00
E380
E380
E1C0
E1C0
E0E0
ENDCHAR
STARTCHAR 0053
ENCODING 83
SWIDTH 571 0
DWIDTH 12 0
BBX 10 15 1 0
BITMAP
7F80
7FC0
FFC0
E000
E000
E000
FF00
7FC0
0FC0
01C0
01C0
01C0
FFC0
FFC0
7F80
ENDCHAR
STARTCHAR 0054
ENCODING 84
SWIDTH 619 0
DWIDTH 13 0
BBX 12 15 0 0
BITMAP
FFF0
FFF0
FFF0
0700
0700
0700
0700
0700
0700
0700
0700
0700
0700
0700
0700
ENDCHAR
STARTCHAR 0055
ENCODING 85
SWIDTH 714 0
DWIDTH 15 0
BBX 11 15 2 0
BITMAP
E0E0
E0E0
E0E0
E0E0
E0E0
E0E0
E0E0
E0E0
E0E0
E0E0
E0E0
E0E0
FFE0
FFE0
7FC0
ENDCHAR
STARTCHAR 0056
ENCODING 86
SWIDTH 666 0
DWIDTH 14 0
BBX 13 15 0 0
BITMAP
F038
7038
7038
7078
7870
3870
3870
38E0
1CE0
1CE0
1CE0
1FC0
0FC0
0FC0
0F80
ENDCHAR
STARTCHAR 0057
ENCODING 87
SWIDTH 952 0
DWIDTH 20 0
BBX 18 15 1 0
BITMAP
E001C0
E0E1C0
E1E1C0
E1E1C0
E1E1C0
71E1C0
73F380
73F380
73F380
733380
373B80
3F3F00
3F3F00
3F1F00
3E1F00
ENDCHAR
STARTCHAR 0058
ENCODING 88
SWIDTH 666 0
DWIDTH 14 0
BBX 12 15 1 0
BITMAP
E0F0
F0E0
71E0
39C0
3F80
1F80
0F00
0F00
1F00
1F80
3BC0
79C0
71E0
E0E0
E070
ENDCHAR
STARTCHAR 0059
ENCODING 89
SWIDTH 619 0
DWIDTH 13 0
BBX 13 15 0 0
BITMAP
F078
7070
78F0
38E0
3DE0
1DC0
1FC0
0F80
0F80
0700
0700
0700
0700
0700
0700
ENDCHAR
STARTCHAR 005A
ENCODING 90
SWIDTH 619 0
DWIDTH 13 0
BBX 11 15 1 0
BITMAP
FFE0
FFE0
FFE0
03C0
0380
0700
0F00
1E00
1C00
3C00
7800
7000
FFE0
FFE0
FFE0
ENDCHAR
STARTCHAR 005B
ENCODING 91
SWIDTH 380 0
DWIDTH 8 0
BBX 5 20 2 -4
BITMAP
F8
F8
F8
E0
E0
E0
E0
E0
E0
E0
E0
E0
E0
E0
E0
E0
E0
F8
F8
F8
ENDCHAR
STARTCHAR 005C
ENCODING 92
SWIDTH 428 0
DWIDTH 9 0
BBX 9 17 0 -1
BITMAP
E000
6000
7000
7000
3800
3800
3800
1C00
1C00
0C00
0E00
0E00
0600
0700
0700
0380
0300
ENDCHAR
STARTCHAR 005D
ENCODING 93
SWIDTH 380 0
DWIDTH 8 0
BBX 5 20 1 -4
BITMAP
F8
F8
F8
38
38
38
38
38
38
38
38
38
38
38
38
38
38
F8
F8
F8
ENDCHAR
STARTCHAR 005E
ENCODING 94
SWIDTH 571 0
DWIDTH 12 0
BBX 10 8 1 7
BITMAP
1E00
1E00
3F00
3700
7380
6380
E1C0
4080
ENDCHAR
STARTCHAR 005F
ENCODING 95
SWIDTH 571 0
DWIDTH 12 0
BBX 10 2 1 -5
BITMAP
FFC0
FFC0
ENDCHAR
STARTCHAR 0060
ENCODING 96
SWIDTH 523 0
DWIDTH 11 0
BBX 4 5 3 13
BITMAP
40
C0
E0
70
20
ENDCHAR
STARTCHAR 0061
ENCODING 97
SWIDTH 571 0
DWIDTH 12 0
BBX 9 12 1 0
BITMAP
3F00
7F80
7F80
0380
0380
7F80
FF80
E380
E380
FF80
FF80
7F80
ENDCHAR
STARTCHAR 0062
ENCODING 98
SWIDTH 571 0
DWIDTH 12 0
BBX 9 16 2 0
BITMAP
C000
C000
C000
C000
FF00
FF80
FF80
C380
C380
C380
C380
C380
C380
FF80
FF80
FF00
ENDCHAR
STARTCHAR 0063
ENCODING 99
SWIDTH 523 0
DWIDTH 11 0
BBX 9 12 1 0
BITMAP
3F00
7F80
FF80
E000
E000
E000
E000
E000
E000
FF80
7F80
3F00
ENDCHAR
STARTCHAR 0064
ENCODING 100
SWIDTH 571 0
DWIDTH 12 0
BBX 10 16 1 0
BITMAP
01C0
01C0
01C0
01C0
3FC0
7FC0
FFC0
E1C0
E1C0
E1C0
E1C0
E1C0
E1C0
FFC0
7FC0
3FC0
ENDCHAR
STARTCHAR 0065
ENCODING 101
SWIDTH 571 0
DWIDTH 12 0
BBX 10 12 1 0
BITMAP
3F80
7F80
FFC0
E1C0
E1C0
FFC0
FFC0
E000
E000
FF80
7F80
3F80
ENDCHAR
STARTCHAR 0066
ENCODING 102
SWIDTH 428 0
DWIDTH 9 0
BBX 6 16 2 0
BITMAP
7C
FC
FC
C0
FC
FC
FC
C0
C0
C0
C0
C0
C0
C0
C0
C0
ENDCHAR
STARTCHAR 0067
ENCODING 103
SWIDTH 571 0
DWIDTH 12 0
BBX 10 17 1 -5
BITMAP
3FC0
7FC0
FFC0
E1C0
E1C0
E1C0
E1C0
E1C0
E1C0
FFC0
7FC0
3FC0
01C0
01C0
7FC0
7F80
3F00
ENDCHAR
STARTCHAR 0068
ENCODING 104
SWIDTH 571 0
DWIDTH 12 0
BBX 9 16 2 0
BITMAP
C000
C000
C000
C000
FF00
FF80
FF80
C380
C380
C380
C380
C380
C380
C380
C380
C380
ENDCHAR
STARTCHAR 0069
ENCODING 105
SWIDTH 285 0
DWIDTH 6 0
BBX 3 17 1 0
BITMAP
E0
E0
E0
00
00
60
60
60
60
60
60
60
60
60
60
60
60
ENDCHAR
STARTCHAR 006A
ENCODING 106
SWIDTH 285 0
DWIDTH 6 0
BBX 4 22 0 -5
BITMAP
70
70
70
00
00
30
30
30
30
30
30
30
30
30
30
30
30
30
70
F0
F0
C0
ENDCHAR
STARTCHAR 006B
ENCODING 107
SWIDTH 571 0
DWIDTH 12 0
BBX 10 16 2 0
BITMAP
C000
C000
C000
C000
C380
C780
CF00
DE00
FC00
FC00
FC00
EE00
EF00
C700
C380
C3C0
ENDCHAR
STARTCHAR 006C
ENCODING 108
SWIDTH 333 0
DWIDTH 7 0
BBX 5 16 1 0
BITMAP
E0
E0
E0
E0
E0
E0
E0
E0
E0
E0
E0
E0
E0
78
78
38
ENDCHAR
STARTCHAR 006D
ENCODING 109
SWIDTH 904 0
DWIDTH 19 0
BBX 16 12 2 0
BITMAP
FFFC
FFFE
FFFE
C387
C387
C387
C387
C387
C387
C387
C387
C387
ENDCHAR
STARTCHAR 006E
ENCODING 110
SWIDTH 571 0
DWIDTH 12 0
BBX 9 12 2 0
BITMAP
FF00
FF80
FF80
C380
C380
C380
C380
C380
C380
C380
C380
C380
ENDCHAR
STARTCHAR 006F
ENCODING 111
SWIDTH 571 0
DWIDTH 12 0
BBX 10 12 1 0
BITMAP
3F80
7FC0
FFC0
E1C0
E1C0
E1C0
E1C0
E1C0
E1C0
FFC0
7FC0
3F80
ENDCHAR
STARTCHAR 0070
ENCODING 112
SWIDTH 571 0
DWIDTH 12 0
BBX 9 17 2 -5
BITMAP
FF00
FF80
FF80
C380
C380
C380
C380
C380
C380
FF80
FF80
FF00
C000
C000
C000
C000
C000
ENDCHAR
STARTCHAR 0071
ENCODING 113
SWIDTH 571 0
DWIDTH 12 0
BBX 10 17 1 -5
BITMAP
3FC0
7FC0
FFC0
E1C0
E1C0
E1C0
E1C0
E1C0
E1C0
FFC0
7FC0
3FC0
01C0
01C0
01C0
01C0
01C0
ENDCHAR
STARTCHAR 0072
ENCODING 114
SWIDTH 380 0
DWIDTH 8 0
BBX 7 12 1 0
BITMAP
7C
FE
FE
E0
E0
E0
E0
E0
E0
E0
E0
E0
ENDCHAR
STARTCHAR 0073
ENCODING 115
SWIDTH 523 0
DWIDTH 11 0
BBX 9 12 1 0
BITMAP
7E00
7F00
FF00
E000
E000
7E00
3F00
0700
0380
FF00
FF00
7E00
ENDCHAR
STARTCHAR 0074
ENCODING 116
SWIDTH 428 0
DWIDTH 9 0
BBX 7 15 1 0
BITMAP
E0
E0
E0
FE
FE
FE
E0
E0
E0
E0
E0
E0
7E
7E
3E
ENDCHAR
STARTCHAR 0075
ENCODING 117
SWIDTH 571 0
DWIDTH 12 0
BBX 10 12 1 0
BITMAP
E1C0
E1C0
E1C0
E1C0
E1C0
E1C0
E1C0
E1C0
E1C0
7FC0
7FC0
3FC0
ENDCHAR
STARTCHAR 0076
ENCODING 118
SWIDTH 571 0
DWIDTH 12 0
BBX 11 12 0 0
BITMAP
E0E0
70E0
70E0
70C0
31C0
39C0
39C0
3B80
1B80
1F80
1F00
0F00
ENDCHAR
STARTCHAR 0077
ENCODING 119
SWIDTH 809 0
DWIDTH 17 0
BBX 17 12 0 0
BITMAP
E1C380
61E380
71E300
73E300
736700
736700
337700
3F7700
3F3600
3F3E00
3E3E00
1E3E00
ENDCHAR
STARTCHAR 0078
ENCODING 120
SWIDTH 571 0
DWIDTH 12 0
BBX 10 12 1 0
BITMAP
E1C0
F380
7380
3F00
3E00
1E00
1E00
3E00
3F00
7380
E380
E1C0
ENDCHAR
STARTCHAR 0079
ENCODING 121
SWIDTH 571 0
DWIDTH 12 0
BBX 11 17 0 -5
BITMAP
E0E0
70E0
70E0
70C0
31C0
39C0
39C0
3B80
1B80
1F80
1F00
0F00
0700
0700
0E00
0E00
0E00
ENDCHAR
STARTCHAR 007A
ENCODING 122
SWIDTH 523 0
DWIDTH 11 0
BBX 9 12 1 0
BITMAP
FF80
FF80
FF80
0F00
0E00
1C00
3C00
3800
7000
FF80
FF80
FF80
ENDCHAR
STARTCHAR 007B
ENCODING 123
SWIDTH 428 0
DWIDTH 9 0
BBX 7 20 1 -4
BITMAP
1E
3E
3E
38
38
38
38
38
70
E0
E0
70
38
38
38
38
38
3E
3E
1E
ENDCHAR
STARTCHAR 007C
ENCODING 124
SWIDTH 333 0
DWIDTH 7 0
BBX 3 21 2 -5
BITMAP
E0
E0
E0
E0
E0
E0
E0
E0
E0
E0
E0
E0
E0
E0
E0
E0
E0
E0
E0
E0
E0
ENDCHAR
STARTCHAR 007D
ENCODING 125
SWIDTH 428 0
DWIDTH 9 0
BBX 7 20 1 -4
BITMAP
F0
F8
F8
38
38
38
38
38
3C
1E
0E
1C
38
38
38
38
38
F8
F8
F0
ENDCHAR
STARTCHAR 007E
ENCODING 126
SWIDTH 571 0
DWIDTH 12 0
BBX 10 5 1 5
BITMAP
3880
7CC0
FFC0
CF80
4700
ENDCHAR
STARTCHAR 00A0
ENCODING 160
SWIDTH 238 0
DWIDTH 5 0
BBX 0 0 0 0
BITMAP
ENDCHAR
STARTCHAR 00A1
ENCODING 161
SWIDTH 285 0
DWIDTH 6 0
BBX 4 15 1 -3
BITMAP
F0
F0
F0
00
E0
E0
E0
E0
E0
E0
E0
E0
E0
E0
E0
ENDCHAR
STARTCHAR 00A2
ENCODING 162
SWIDTH 571 0
DWIDTH 12 0
BBX 8 18 2 -3
BITMAP
1C
1C
1C
7F
FF
FF
E0
E0
E0
E0
E0
E0
FF
FF
7F
1C
1C
1C
ENDCHAR
STARTCHAR 00A3
ENCODING 163
SWIDTH 571 0
DWIDTH 12 0
BBX 10 15 1 0
BITMAP
1F80
3FC0
3FC0
3800
3800
3800
FF00
FF00
3800
3800
3800
3800
FFC0
FFC0
FFC0
ENDCHAR
STARTCHAR 00A4
ENCODING 164
SWIDTH 571 0
DWIDTH 12 0
BBX 10 11 1 2
BITMAP
4080
E1C0
7F80
3F00
3300
3300
3300
3F00
7F80
E1C0
4080
ENDCHAR
STARTCHAR 00A5
ENCODING 165
SWIDTH 571 0
DWIDTH 12 0
BBX 12 15 0 0
BITMAP
E070
70F0
70E0
39E0
39C0
1DC0
1F80
1F80
3FC0
3FC0
0700
3FC0
3FC0
0700
0700
ENDCHAR
STARTCHAR 00A6
ENCODING 166
SWIDTH 333 0
DWIDTH 7 0
BBX 3 21 2 -5
BITMAP
E0
E0
E0
E0
E0
E0
E0
E0
00
00
00
00
00
E0
E0
E0
E0
E0
E0
E0
E0
ENDCHAR
STARTCHAR 00A7
ENCODING 167
SWIDTH 523 0
DWIDTH 11 0
BBX 8 17 2 -2
BITMAP
7E
FE
FE
C0
F0
FE
FF
C7
C7
C7
FF
FE
1F
07
FF
FF
FE
ENDCHAR
STARTCHAR 00A8
ENCODING 168
SWIDTH 523 0
DWIDTH 11 0
BBX 7 3 2 13
BITMAP
CE
CE
CE
ENDCHAR
STARTCHAR 00A9
ENCODING 169
SWIDTH 857 0
DWIDTH 18 0
BBX 14 14 2 0
BITMAP
FFF8
FFFC
C00C
CF8C
CFCC
DC0C
DC0C
DC0C
DC0C
CFCC
CF8C
C00C
FFFC
FFF8
ENDCHAR
STARTCHAR 00AA
ENCODING 170
SWIDTH 380 0
DWIDTH 8 0
BBX 7 9 1 6
BITMAP
7C
7C
0E
7E
FE
CE
CE
FE
7E
ENDCHAR
STARTCHAR 00AB
ENCODING 171
SWIDTH 571 0
DWIDTH 12 0
BBX 10 11 1 1
BITMAP
1080
18C0
39C0
7380
E700
E700
E700
7380
39C0
18C0
1080
ENDCHAR
STARTCHAR 00AC
ENCODING 172
SWIDTH 571 0
DWIDTH 12 0
BBX 10 6 1 3
BITMAP
FFC0
FFC0
01C0
01C0
01C0
01C0
ENDCHAR
STARTCHAR 00AD
ENCODING 173
SWIDTH 380 0
DWIDTH 8 0
BBX 6 2 1 6
BITMAP
FC
FC
ENDCHAR
STARTCHAR 00AE
ENCODING 174
SWIDTH 857 0
DWIDTH 18 0
BBX 14 14 2 0
BITMAP
FFF8
FFFC
C00C
CF8C
CFCC
CCCC
CCCC
CFCC
CF8C
CDCC
CCCC
C00C
FFFC
FFF8
ENDCHAR
STARTCHAR 00AF
ENCODING 175
SWIDTH 523 0
DWIDTH 11 0
BBX 6 2 2 14
BITMAP
FC
FC
ENDCHAR
STARTCHAR 00B0
ENCODING 176
SWIDTH 428 0
DWIDTH 9 0
BBX 7 7 1 8
BITMAP
7C
FC
CE
CE
CE
FC
7C
ENDCHAR
STARTCHAR 00B1
ENCODING 177
SWIDTH 571 0
DWIDTH 12 0
BBX 10 12 1 0
BITMAP
0C00
0C00
0C00
FFC0
FFC0
0C00
0C00
0C00
0000
0000
FFC0
FFC0
ENDCHAR
STARTCHAR 00B2
ENCODING 178
SWIDTH 380 0
DWIDTH 8 0
BBX 6 9 1 6
BITMAP
F8
FC
0C
1C
FC
E0
C0
FC
FC
ENDCHAR
STARTCHAR 00B3
ENCODING 179
SWIDTH 380 0
DWIDTH 8 0
BBX 6 9 1 6
BITMAP
F8
FC
0C
7C
7C
0C
0C
FC
F8
ENDCHAR
STARTCHAR 00B4
ENCODING 180
SWIDTH 523 0
DWIDTH 11 0
BBX 5 5 3 13
BITMAP
10
38
70
E0
40
ENDCHAR
STARTCHAR 00B5
ENCODING 181
SWIDTH 571 0
DWIDTH 12 0
BBX 9 17 2 -5
BITMAP
C380
C380
C380
C380
C380
C380
C380
C380
C380
FF80
FF80
FF00
C000
C000
C000
C000
C000
ENDCHAR
STARTCHAR 00B6
ENCODING 182
SWIDTH 666 0
DWIDTH 14 0
BBX 11 19 1 -4
BITMAP
7CE0
7CE0
FCE0
FCE0
FCE0
FCE0
FCE0
FCE0
7CE0
7CE0
00E0
00E0
00E0
00E0
00E0
00E0
00E0
00E0
00E0
ENDCHAR
STARTCHAR 00B7
ENCODING 183
SWIDTH 285 0
DWIDTH 6 0
BBX 4 3 1 5
BITMAP
F0
F0
F0
ENDCHAR
STARTCHAR 00B8
ENCODING 184
SWIDTH 523 0
DWIDTH 11 0
BBX 5 5 3 -4
BITMAP
38
38
38
F0
F0
ENDCHAR
STARTCHAR 00B9
ENCODING 185
SWIDTH 380 0
DWIDTH 8 0
BBX 6 9 1 6
BITMAP
70
F0
30
30
30
30
30
FC
FC
ENDCHAR
STARTCHAR 00BA
ENCODING 186
SWIDTH 428 0
DWIDTH 9 0
BBX 7 9 1 6
BITMAP
7C
FE
C6
C6
C6
C6
C6
FE
7C
ENDCHAR
STARTCHAR 00BB
ENCODING 187
SWIDTH 571 0
DWIDTH 12 0
BBX 11 11 1 1
BITMAP
4200
C600
E700
7380
39C0
1CE0
39C0
7380
E700
C600
4200
ENDCHAR
STARTCHAR 00BC
ENCODING 188
SWIDTH 857 0
DWIDTH 18 0
BBX 17 15 1 0
BITMAP
701000
F03800
303800
307000
307000
30E000
30EE00
FDCC00
FDCC00
019C00
039B80
031B80
073F80
0E3F80
060380
ENDCHAR
STARTCHAR 00BD
ENCODING 189
SWIDTH 904 0
DWIDTH 19 0
BBX 18 15 1 0
BITMAP
701000
F03800
303800
307000
307000
30E000
30EF80
FDCF80
FDC1C0
0183C0
038F80
031E00
071C00
0E1FC0
061FC0
ENDCHAR
STARTCHAR 00BE
ENCODING 190
SWIDTH 857 0
DWIDTH 18 0
BBX 16 15 1 0
BITMAP
F830
FC38
0C70
7C70
7CE0
0CE0
0DCC
FDDC
FB98
0398
073B
0733
0E3F
0E3F
0403
ENDCHAR
STARTCHAR 00BF
ENCODING 191
SWIDTH 523 0
DWIDTH 11 0
BBX 9 15 1 -3
BITMAP
0E00
0E00
0E00
0000
0E00
0E00
7E00
7E00
FE00
E000
E000
E000
FF80
FF80
7F00
ENDCHAR
STARTCHAR 00C0
ENCODING 192
SWIDTH 666 0
DWIDTH 14 0
BBX 14 21 0 0
BITMAP
0400
0E00
0700
0380
0100
0000
0780
0FC0
0FC0
0FC0
1CE0
1CE0
1CE0
3870
3870
3FF0
3FF0
7FF8
7038
7038
E01C
ENDCHAR
STARTCHAR 00C1
ENCODING 193
SWIDTH 666 0
DWIDTH 14 0
BBX 14 21 0 0
BITMAP
0080
01C0
0380
0700
0200
0000
0780
0FC0
0FC0
0FC0
1CE0
1CE0
1CE0
3870
3870
3FF0
3FF0
7FF8
7038
7038
E01C
ENDCHAR
STARTCHAR 00C2
ENCODING 194
SWIDTH 666 0
DWIDTH 14 0
BBX 14 21 0 0
BITMAP
0200
0300
0780
0CC0
0840
0000
0780
0FC0
0FC0
0FC0
1CE0
1CE0
1CE0
3870
3870
3FF0
3FF0
7FF8
7038
7038
E01C
ENDCHAR
STARTCHAR 00C3
ENCODING 195
SWIDTH 666 0
DWIDTH 14 0
BBX 14 20 0 0
BITMAP
0640
0F60
1BC0
0980
0000
0780
0FC0
0FC0
0FC0
1CE0
1CE0
1CE0
3870
3870
3FF0
3FF0
7FF8
7038
7038
E01C
ENDCHAR
STARTCHAR 00C4
ENCODING 196
SWIDTH 666 0
DWIDTH 14 0
BBX 14 19 0 0
BITMAP
0CC0
0CC0
0CC0
0000
0780
0FC0
0FC0
0FC0
1CE0
1CE0
1CE0
3870
3870
3FF0
3FF0
7FF8
7038
7038
E01C
ENDCHAR
STARTCHAR 00C5
ENCODING 197
SWIDTH 666 0
DWIDTH 14 0
BBX 14 21 0 0
BITMAP
0780
0480
0480
0480
0780
0000
0780
0FC0
0FC0
0FC0
1CE0
1CE0
1CE0
3870
3870
3FF0
3FF0
7FF8
7038
7038
E01C
ENDCHAR
STARTCHAR 00C6
ENCODING 198
SWIDTH 904 0
DWIDTH 19 0
BBX 18 15 0 0
BITMAP
07FFC0
0FFFC0
0FFFC0
0E7000
1C7000
1C7000
1C7FC0
387FC0
387FC0
3FF000
3FF000
7FF000
707FC0
707FC0
E07FC0
ENDCHAR
STARTCHAR 00C7
ENCODING 199
SWIDTH 619 0
DWIDTH 13 0
BBX 10 19 2 -4
BITMAP
7F80
FFC0
FFC0
E000
E000
E000
E000
E000
E000
E000
E000
E000
FFC0
FFC0
7F80
0600
0600
1E00
1E00
ENDCHAR
STARTCHAR 00C8
ENCODING 200
SWIDTH 619 0
DWIDTH 13 0
BBX 10 21 2 0
BITMAP
1000
3800
1C00
0E00
0400
0000
FFC0
FFC0
FFC0
E000
E000
E000
FF80
FF80
FF80
E000
E000
E000
FFC0
FFC0
FFC0
ENDCHAR
STARTCHAR 00C9
ENCODING 201
SWIDTH 619 0
DWIDTH 13 0
BBX 10 21 2 0
BITMAP
0400
0600
0E00
1C00
0800
0000
FFC0
FFC0
FFC0
E000
E000
E000
FF80
FF80
FF80
E000
E000
E000
FFC0
FFC0
FFC0
ENDCHAR
STARTCHAR 00CA
ENCODING 202
SWIDTH 619 0
DWIDTH 13 0
BBX 10 21 2 0
BITMAP
0800
1C00
3E00
7700
2200
0000
FFC0
FFC0
FFC0
E000
E000
E000
FF80
FF80
FF80
E000
E000
E000
FFC0
FFC0
FFC0
ENDCHAR
STARTCHAR 00CB
ENCODING 203
SWIDTH 619 0
DWIDTH 13 0
BBX 10 19 2 0
BITMAP
7300
7300
7300
0000
FFC0
FFC0
FFC0
E000
E000
E000
FF80
FF80
FF80
E000
E000
E000
FFC0
FFC0
FFC0
ENDCHAR
STARTCHAR 00CC
ENCODING 204
SWIDTH 285 0
DWIDTH 6 0
BBX 4 21 1 0
BITMAP
40
C0
E0
70
20
00
70
70
70
70
70
70
70
70
70
70
70
70
70
70
70
ENDCHAR
STARTCHAR 00CD
ENCODING 205
SWIDTH 285 0
DWIDTH 6 0
BBX 5 21 1 0
BITMAP
10
38
70
E0
40
00
70
70
70
70
70
70
70
70
70
70
70
70
70
70
70
ENDCHAR
STARTCHAR 00CE
ENCODING 206
SWIDTH 285 0
DWIDTH 6 0
BBX 7 21 0 0
BITMAP
10
38
7C
EE
44
00
38
38
38
38
38
38
38
38
38
38
38
38
38
38
38
ENDCHAR
STARTCHAR 00CF
ENCODING 207
SWIDTH 285 0
DWIDTH 6 0
BBX 7 19 0 0
BITMAP
CE
CE
CE
00
38
38
38
38
38
38
38
38
38
38
38
38
38
38
38
ENDCHAR
STARTCHAR 00D0
ENCODING 208
SWIDTH 714 0
DWIDTH 15 0
BBX 13 15 0 0
BITMAP
3FE0
3FF0
3FF8
3838
3838
3838
FF38
FF38
3838
3838
3838
3838
3FF8
3FF0
3FE0
ENDCHAR
STARTCHAR 00D1
ENCODING 209
SWIDTH 761 0
DWIDTH 16 0
BBX 12 20 2 0
BITMAP
0C80
1CC0
3780
1300
0000
E070
F070
F070
F870
FC70
FC70
EE70
EE70
E770
E7F0
E3F0
E3F0
E1F0
E0F0
E0F0
ENDCHAR
STARTCHAR 00D2
ENCODING 210
SWIDTH 714 0
DWIDTH 15 0
BBX 11 21 2 0
BITMAP
0800
1C00
0C00
0E00
0400
0000
7FC0
FFE0
FFE0
E0E0
E0E0
E0E0
E0E0
E0E0
E0E0
E0E0
E0E0
E0E0
FFE0
FFE0
7FC0
ENDCHAR
STARTCHAR 00D3
ENCODING 211
SWIDTH 714 0
DWIDTH 15 0
BBX 11 21 2 0
BITMAP
0200
0700
0600
0C00
0400
0000
7FC0
FFE0
FFE0
E0E0
E0E0
E0E0
E0E0
E0E0
E0E0
E0E0
E0E0
E0E0
FFE0
FFE0
7FC0
ENDCHAR
STARTCHAR 00D4
ENCODING 212
SWIDTH 714 0
DWIDTH 15 0
BBX 11 21 2 0
BITMAP
0400
0E00
1F00
3B80
1100
0000
7FC0
FFE0
FFE0
E0E0
E0E0
E0E0
E0E0
E0E0
E0E0
E0E0
E0E0
E0E0
FFE0
FFE0
7FC0
ENDCHAR
STARTCHAR 00D5
ENCODING 213
SWIDTH 714 0
DWIDTH 15 0
BBX 11 20 2 0
BITMAP
1900
3D80
3700
2300
0000
7FC0
FFE0
FFE0
E0E0
E0E0
E0E0
E0E0
E0E0
E0E0
E0E0
E0E0
E0E0
FFE0
FFE0
7FC0
ENDCHAR
STARTCHAR 00D6
ENCODING 214
SWIDTH 714 0
DWIDTH 15 0
BBX 11 19 2 0
BITMAP
3B80
3B80
3B80
0000
7FC0
FFE0
FFE0
E0E0
E0E0
E0E0
E0E0
E0E0
E0E0
E0E0
E0E0
E0E0
FFE0
FFE0
7FC0
ENDCHAR
STARTCHAR 00D7
ENCODING 215
SWIDTH 571 0
DWIDTH 12 0
BBX 10 9 1 3
BITMAP
6180
F3C0
7F80
3F00
1E00
3F00
7F80
F3C0
2180
ENDCHAR
STARTCHAR 00D8
ENCODING 216
SWIDTH 714 0
DWIDTH 15 0
BBX 11 15 2 0
BITMAP
7FC0
FFE0
FFE0
E0E0
E1E0
E3E0
E7E0
EEE0
FCE0
F8E0
F0E0
E0E0
FFE0
FFE0
7FC0
ENDCHAR
STARTCHAR 00D9
ENCODING 217
SWIDTH 714 0
DWIDTH 15 0
BBX 11 21 2 0
BITMAP
0800
1800
1C00
0E00
0400
0000
E0E0
E0E0
E0E0
E0E0
E0E0
E0E0
E0E0
E0E0
E0E0
E0E0
E0E0
E0E0
FFE0
FFE0
7FC0
ENDCHAR
STARTCHAR 00DA
ENCODING 218
SWIDTH 714 0
DWIDTH 15 0
BBX 11 21 2 0
BITMAP
0200
0700
0E00
0C00
0800
0000
E0E0
E0E0
E0E0
E0E0
E0E0
E0E0
E0E0
E0E0
E0E0
E0E0
E0E0
E0E0
FFE0
FFE0
7FC0
ENDCHAR
STARTCHAR 00DB
ENCODING 219
SWIDTH 714 0
DWIDTH 15 0
BBX 11 21 2 0
BITMAP
0400
0E00
1F00
3B80
1100
0000
E0E0
E0E0
E0E0
E0E0
E0E0
E0E0
E0E0
E0E0
E0E0
E0E0
E0E0
E0E0
FFE0
FFE0
7FC0
ENDCHAR
STARTCHAR 00DC
ENCODING 220
SWIDTH 714 0
DWIDTH 15 0
BBX 11 19 2 0
BITMAP
3380
3380
3380
0000
E0E0
E0E0
E0E0
E0E0
E0E0
E0E0
E0E0
E0E0
E0E0
E0E0
E0E0
E0E0
FFE0
FFE0
7FC0
ENDCHAR
STARTCHAR 00DD
ENCODING 221
SWIDTH 619 0
DWIDTH 13 0
BBX 13 21 0 0
BITMAP
0100
0380
0300
0600
0200
0000
F078
7070
78F0
38E0
3DE0
1DC0
1FC0
0F80
0F80
0700
0700
0700
0700
0700
0700
ENDCHAR
STARTCHAR 00DE
ENCODING 222
SWIDTH 619 0
DWIDTH 13 0
BBX 10 15 2 0
BITMAP
E000
E000
FF00
FFC0
FFC0
E1C0
E1C0
E1C0
E1C0
E1C0
FFC0
FFC0
FF00
E000
E000
ENDCHAR
STARTCHAR 00DF
ENCODING 223
SWIDTH 619 0
DWIDTH 13 0
BBX 10 16 2 0
BITMAP
7F00
FF80
FF80
C380
C380
C380
CF80
CF00
CF80
C1C0
C1C0
C1C0
C1C0
CFC0
CF80
CF00
ENDCHAR
STARTCHAR 00E0
ENCODING 224
SWIDTH 571 0
DWIDTH 12 0
BBX 9 18 1 0
BITMAP
1000
3800
1C00
0E00
0400
0000
3F00
7F80
7F80
0380
0380
7F80
FF80
E380
E380
FF80
FF80
7F80
ENDCHAR
STARTCHAR 00E1
ENCODING 225
SWIDTH 571 0
DWIDTH 12 0
BBX 9 18 1 0
BITMAP
0400
0600
0E00
1C00
0800
0000
3F00
7F80
7F80
0380
0380
7F80
FF80
E380
E380
FF80
FF80
7F80
ENDCHAR
STARTCHAR 00E2
ENCODING 226
SWIDTH 571 0
DWIDTH 12 0
BBX 9 18 1 0
BITMAP
0800
1C00
3E00
7700
2200
0000
3F00
7F80
7F80
0380
0380
7F80
FF80
E380
E380
FF80
FF80
7F80
ENDCHAR
STARTCHAR 00E3
ENCODING 227
SWIDTH 571 0
DWIDTH 12 0
BBX 9 17 1 0
BITMAP
1900
3B80
6F00
2600
0000
3F00
7F80
7F80
0380
0380
7F80
FF80
E380
E380
FF80
FF80
7F80
ENDCHAR
STARTCHAR 00E4
ENCODING 228
SWIDTH 571 0
DWIDTH 12 0
BBX 9 16 1 0
BITMAP
7300
7300
7300
0000
3F00
7F80
7F80
0380
0380
7F80
FF80
E380
E380
FF80
FF80
7F80
ENDCHAR
STARTCHAR 00E5
ENCODING 229
SWIDTH 571 0
DWIDTH 12 0
BBX 9 18 1 0
BITMAP
1E00
3200
3200
3200
1E00
0000
3F00
7F80
7F80
0380
0380
7F80
FF80
E380
E380
FF80
FF80
7F80
ENDCHAR
STARTCHAR 00E6
ENCODING 230
SWIDTH 857 0
DWIDTH 18 0
BBX 16 12 1 0
BITMAP
3EFC
7FFE
7FFF
0387
0387
7FFF
FFFF
E380
E380
FFFE
FFFE
7EFE
ENDCHAR
STARTCHAR 00E7
ENCODING 231
SWIDTH 523 0
DWIDTH 11 0
BBX 9 16 1 -4
BITMAP
3F00
7F80
FF80
E000
E000
E000
E000
E000
E000
FF80
7F80
3F00
0600
0600
1E00
1E00
ENDCHAR
STARTCHAR 00E8
ENCODING 232
SWIDTH 571 0
DWIDTH 12 0
BBX 10 18 1 0
BITMAP
1000
3800
1C00
0E00
0400
0000
3F80
7F80
FFC0
E1C0
E1C0
FFC0
FFC0
E000
E000
FF80
7F80
3F80
ENDCHAR
STARTCHAR 00E9
ENCODING 233
SWIDTH 571 0
DWIDTH 12 0
BBX 10 18 1 0
BITMAP
0200
0700
0E00
1C00
0800
0000
3F80
7F80
FFC0
E1C0
E1C0
FFC0
FFC0
E000
E000
FF80
7F80
3F80
ENDCHAR
STARTCHAR 00EA
ENCODING 234
SWIDTH 571 0
DWIDTH 12 0
BBX 10 18 1 0
BITMAP
0400
0C00
1E00
3300
1100
0000
3F80
7F80
FFC0
E1C0
E1C0
FFC0
FFC0
E000
E000
FF80
7F80
3F80
ENDCHAR
STARTCHAR 00EB
ENCODING 235
SWIDTH 571 0
DWIDTH 12 0
BBX 10 16 1 0
BITMAP
3300
3300
3300
0000
3F80
7F80
FFC0
E1C0
E1C0
FFC0
FFC0
E000
E000
FF80
7F80
3F80
ENDCHAR
STARTCHAR 00EC
ENCODING 236
SWIDTH 285 0
DWIDTH 6 0
BBX 5 18 0 0
BITMAP
40
E0
70
38
10
00
30
30
30
30
30
30
30
30
30
30
30
30
ENDCHAR
STARTCHAR 00ED
ENCODING 237
SWIDTH 285 0
DWIDTH 6 0
BBX 5 18 1 0
BITMAP
10
38
70
E0
40
00
60
60
60
60
60
60
60
60
60
60
60
60
ENDCHAR
STARTCHAR 00EE
ENCODING 238
SWIDTH 285 0
DWIDTH 6 0
BBX 6 18 0 0
BITMAP
20
30
78
CC
88
00
30
30
30
30
30
30
30
30
30
30
30
30
ENDCHAR
STARTCHAR 00EF
ENCODING 239
SWIDTH 285 0
DWIDTH 6 0
BBX 6 16 0 0
BITMAP
CC
CC
CC
00
30
30
30
30
30
30
30
30
30
30
30
30
ENDCHAR
STARTCHAR 00F0
ENCODING 240
SWIDTH 571 0
DWIDTH 12 0
BBX 10 16 1 0
BITMAP
0400
0F80
0FC0
3F00
1F80
1380
1FC0
7FC0
7FC0
E1C0
E1C0
E1C0
E1C0
FFC0
7FC0
3F80
ENDCHAR
STARTCHAR 00F1
ENCODING 241
SWIDTH 571 0
DWIDTH 12 0
BBX 9 17 2 0
BITMAP
3200
7B00
6E00
4E00
0000
FF00
FF80
FF80
C380
C380
C380
C380
C380
C380
C380
C380
C380
ENDCHAR
STARTCHAR 00F2
ENCODING 242
SWIDTH 571 0
DWIDTH 12 0
BBX 10 18 1 0
BITMAP
0800
1800
1C00
0E00
0400
0000
3F80
7FC0
FFC0
E1C0
E1C0
E1C0
E1C0
E1C0
E1C0
FFC0
7FC0
3F80
ENDCHAR
STARTCHAR 00F3
ENCODING 243
SWIDTH 571 0
DWIDTH 12 0
BBX 10 18 1 0
BITMAP
0200
0700
0E00
1C00
0800
0000
3F80
7FC0
FFC0
E1C0
E1C0
E1C0
E1C0
E1C0
E1C0
FFC0
7FC0
3F80
ENDCHAR
STARTCHAR 00F4
ENCODING 244
SWIDTH 571 0
DWIDTH 12 0
BBX 10 18 1 0
BITMAP
0400
0E00
1F00
3B80
1100
0000
3F80
7FC0
FFC0
E1C0
E1C0
E1C0
E1C0
E1C0
E1C0
FFC0
7FC0
3F80
ENDCHAR
STARTCHAR 00F5
ENCODING 245
SWIDTH 571 0
DWIDTH 12 0
BBX 10 17 1 0
BITMAP
1900
3D80
7700
2600
0000
3F80
7FC0
FFC0
E1C0
E1C0
E1C0
E1C0
E1C0
E1C0
FFC0
7FC0
3F80
ENDCHAR
STARTCHAR 00F6
ENCODING 246
SWIDTH 571 0
DWIDTH 12 0
BBX 10 16 1 0
BITMAP
3380
3380
3380
0000
3F80
7FC0
FFC0
E1C0
E1C0
E1C0
E1C0
E1C0
E1C0
FFC0
7FC0
3F80
ENDCHAR
STARTCHAR 00F7
ENCODING 247
SWIDTH 571 0
DWIDTH 12 0
BBX 10 10 1 3
BITMAP
0C00
0C00
0C00
0000
FFC0
FFC0
0000
0000
0C00
0C00
ENDCHAR
STARTCHAR 00F8
ENCODING 248
SWIDTH 571 0
DWIDTH 12 0
BBX 10 12 1 0
BITMAP
3F80
7FC0
FFC0
E3C0
E3C0
E7C0
EDC0
F9C0
F1C0
FFC0
7FC0
3F80
ENDCHAR
STARTCHAR 00F9
ENCODING 249
SWIDTH 571 0
DWIDTH 12 0
BBX 10 18 1 0
BITMAP
0800
3800
1C00
0E00
0400
0000
E1C0
E1C0
E1C0
E1C0
E1C0
E1C0
E1C0
E1C0
E1C0
7FC0
7FC0
3FC0
ENDCHAR
STARTCHAR 00FA
ENCODING 250
SWIDTH 571 0
DWIDTH 12 0
BBX 10 18 1 0
BITMAP
0200
0700
0E00
1C00
0800
0000
E1C0
E1C0
E1C0
E1C0
E1C0
E1C0
E1C0
E1C0
E1C0
7FC0
7FC0
3FC0
ENDCHAR
STARTCHAR 00FB
ENCODING 251
SWIDTH 571 0
DWIDTH 12 0
BBX 10 18 1 0
BITMAP
0400
0E00
1F00
3B00
1100
0000
E1C0
E1C0
E1C0
E1C0
E1C0
E1C0
E1C0
E1C0
E1C0
7FC0
7FC0
3FC0
ENDCHAR
STARTCHAR 00FC
ENCODING 252
SWIDTH 571 0
DWIDTH 12 0
BBX 10 16 1 0
BITMAP
3380
3380
3380
0000
E1C0
E1C0
E1C0
E1C0
E1C0
E1C0
E1C0
E1C0
E1C0
7FC0
7FC0
3FC0
ENDCHAR
STARTCHAR 00FD
ENCODING 253
SWIDTH 571 0
DWIDTH 12 0
BBX 11 23 0 -5
BITMAP
0200
0380
0700
0E00
0400
0000
E0E0
70E0
70E0
70C0
31C0
39C0
39C0
3B80
1B80
1F80
1F00
0F00
0700
0700
0E00
0E00
0E00
ENDCHAR
STARTCHAR 00FE
ENCODING 254
SWIDTH 571 0
DWIDTH 12 0
BBX 9 21 2 -5
BITMAP
C000
C000
C000
C000
FF00
FF80
FF80
C380
C380
C380
C380
C380
C380
FF80
FF80
FF00
C000
C000
C000
C000
C000
ENDCHAR
STARTCHAR 00FF
ENCODING 255
SWIDTH 571 0
DWIDTH 12 0
BBX 11 21 0 -5
BITMAP
3980
3980
3980
0000
E0E0
70E0
70E0
70C0
31C0
39C0
39C0
3B80
1B80
1F80
1F00
0F00
0700
0700
0E00
0E00
0E00
ENDCHAR
STARTCHAR 0100
ENCODING 256
SWIDTH 666 0
DWIDTH 14 0
BBX 14 19 0 0
BITMAP
0FC0
0FC0
0000
0000
0780
0FC0
0FC0
0FC0
1CE0
1CE0
1CE0
3870
3870
3FF0
3FF0
7FF8
7038
7038
E01C
ENDCHAR
STARTCHAR 0101
ENCODING 257
SWIDTH 571 0
DWIDTH 12 0
BBX 9 16 1 0
BITMAP
3F00
3F00
0000
0000
3F00
7F80
7F80
0380
0380
7F80
FF80
E380
E380
FF80
FF80
7F80
ENDCHAR
STARTCHAR 0102
ENCODING 258
SWIDTH 666 0
DWIDTH 14 0
BBX 14 19 0 0
BITMAP
0CC0
0FC0
0FC0
0000
0780
0FC0
0FC0
0FC0
1CE0
1CE0
1CE0
3870
3870
3FF0
3FF0
7FF8
7038
7038
E01C
ENDCHAR
STARTCHAR 0103
ENCODING 259
SWIDTH 571 0
DWIDTH 12 0
BBX 9 16 1 0
BITMAP
3300
3F00
3E00
0000
3F00
7F80
7F80
0380
0380
7F80
FF80
E380
E380
FF80
FF80
7F80
ENDCHAR
STARTCHAR 0104
ENCODING 260
SWIDTH 666 0
DWIDTH 14 0
BBX 14 19 0 -4
BITMAP
0780
0FC0
0FC0
0FC0
1CE0
1CE0
1CE0
3870
3870
3FF0
3FF0
7FF8
7038
7038
E07C
0060
0060
007C
0038
ENDCHAR
STARTCHAR 0105
ENCODING 261
SWIDTH 571 0
DWIDTH 12 0
BBX 9 16 1 -4
BITMAP
3F00
7F80
7F80
0380
0380
7F80
FF80
E380
E380
FF80
FF80
7F80
0600
0600
0780
0780
ENDCHAR
STARTCHAR 0106
ENCODING 262
SWIDTH 619 0
DWIDTH 13 0
BBX 10 21 2 0
BITMAP
0200
0700
0E00
1C00
0800
0000
7F80
FFC0
FFC0
E000
E000
E000
E000
E000
E000
E000
E000
E000
FFC0
FFC0
7F80
ENDCHAR
STARTCHAR 0107
ENCODING 263
SWIDTH 523 0
DWIDTH 11 0
BBX 9 18 1 0
BITMAP
0200
0700
0E00
1C00
0800
0000
3F00
7F80
FF80
E000
E000
E000
E000
E000
E000
FF80
7F80
3F00
ENDCHAR
STARTCHAR 010C
ENCODING 268
SWIDTH 619 0
DWIDTH 13 0
BBX 10 21 2 0
BITMAP
1100
3B80
1F00
0E00
0400
0000
7F80
FFC0
FFC0
E000
E000
E000
E000
E000
E000
E000
E000
E000
FFC0
FFC0
7F80
ENDCHAR
STARTCHAR 010D
ENCODING 269
SWIDTH 523 0
DWIDTH 11 0
BBX 9 18 1 0
BITMAP
1100
3300
1E00
0C00
0400
0000
3F00
7F80
FF80
E000
E000
E000
E000
E000
E000
FF80
7F80
3F00
ENDCHAR
STARTCHAR 010E
ENCODING 270
SWIDTH 666 0
DWIDTH 14 0
BBX 11 21 2 0
BITMAP
2100
3300
1E00
0C00
0800
0000
FF00
FFC0
FFC0
E1E0
E0E0
E0E0
E0E0
E0E0
E0E0
E0E0
E0E0
E1E0
FFC0
FFC0
FF00
ENDCHAR
STARTCHAR 010F
ENCODING 271
SWIDTH 666 0
DWIDTH 14 0
BBX 14 17 1 0
BITMAP
000C
01DC
01D8
01D8
01D8
3FC0
7FC0
FFC0
E1C0
E1C0
E1C0
E1C0
E1C0
E1C0
FFC0
7FC0
3FC0
ENDCHAR
STARTCHAR 0110
ENCODING 272
SWIDTH 714 0
DWIDTH 15 0
BBX 13 15 0 0
BITMAP
3FE0
3FF0
3FF8
3838
3838
3838
FF38
FF38
3838
3838
3838
3838
3FF8
3FF0
3FE0
ENDCHAR
STARTCHAR 0111
ENCODING 273
SWIDTH 571 0
DWIDTH 12 0
BBX 11 16 1 0
BITMAP
01C0
0FE0
0FE0
01C0
3FC0
7FC0
FFC0
E1C0
E1C0
E1C0
E1C0
E1C0
E1C0
FFC0
7FC0
3FC0
ENDCHAR
STARTCHAR 0112
ENCODING 274
SWIDTH 619 0
DWIDTH 13 0
BBX 10 19 2 0
BITMAP
3F00
3F00
0000
0000
FFC0
FFC0
FFC0
E000
E000
E000
FF80
FF80
FF80
E000
E000
E000
FFC0
FFC0
FFC0
ENDCHAR
STARTCHAR 0113
ENCODING 275
SWIDTH 571 0
DWIDTH 12 0
BBX 10 16 1 0
BITMAP
3F00
3F00
0000
0000
3F80
7F80
FFC0
E1C0
E1C0
FFC0
FFC0
E000
E000
FF80
7F80
3F80
ENDCHAR
STARTCHAR 0116
ENCODING 278
SWIDTH 619 0
DWIDTH 13 0
BBX 10 20 2 0
BITMAP
1C00
1C00
1C00
0000
0000
FFC0
FFC0
FFC0
E000
E000
E000
FF80
FF80
FF80
E000
E000
E000
FFC0
FFC0
FFC0
ENDCHAR
STARTCHAR 0117
ENCODING 279
SWIDTH 571 0
DWIDTH 12 0
BBX 10 17 1 0
BITMAP
0E00
0E00
0E00
0000
0000
3F80
7F80
FFC0
E1C0
E1C0
FFC0
FFC0
E000
E000
FF80
7F80
3F80
ENDCHAR
STARTCHAR 0118
ENCODING 280
SWIDTH 619 0
DWIDTH 13 0
BBX 10 19 2 -4
BITMAP
FFC0
FFC0
FFC0
E000
E000
E000
FF80
FF80
FF80
E000
E000
E000
FFC0
FFC0
FFC0
0600
0600
07C0
0380
ENDCHAR
STARTCHAR 0119
ENCODING 281
SWIDTH 571 0
DWIDTH 12 0
BBX 10 16 1 -4
BITMAP
3F80
7F80
FFC0
E1C0
E1C0
FFC0
FFC0
E000
E000
FF80
7F80
3F80
0600
0600
0780
0780
ENDCHAR
STARTCHAR 011A
ENCODING 282
SWIDTH 619 0
DWIDTH 13 0
BBX 10 21 2 0
BITMAP
2200
7700
3E00
1C00
0800
0000
FFC0
FFC0
FFC0
E000
E000
E000
FF80
FF80
FF80
E000
E000
E000
FFC0
FFC0
FFC0
ENDCHAR
STARTCHAR 011B
ENCODING 283
SWIDTH 571 0
DWIDTH 12 0
BBX 10 18 1 0
BITMAP
1100
3300
1E00
0C00
0400
0000
3F80
7F80
FFC0
E1C0
E1C0
FFC0
FFC0
E000
E000
FF80
7F80
3F80
ENDCHAR
STARTCHAR 011E
ENCODING 286
SWIDTH 666 0
DWIDTH 14 0
BBX 11 19 2 0
BITMAP
3300
3F00
1F00
0000
7FC0
FFE0
FFE0
E000
E000
E000
E7E0
E7E0
E7E0
E0E0
E0E0
E0E0
FFE0
FFE0
7FE0
ENDCHAR
STARTCHAR 011F
ENCODING 287
SWIDTH 571 0
DWIDTH 12 0
BBX 10 21 1 -5
BITMAP
3300
3F00
3F00
0000
3FC0
7FC0
FFC0
E1C0
E1C0
E1C0
E1C0
E1C0
E1C0
FFC0
7FC0
3FC0
01C0
01C0
7FC0
7F80
3F00
ENDCHAR
STARTCHAR 0122
ENCODING 290
SWIDTH 666 0
DWIDTH 14 0
BBX 11 20 2 -5
BITMAP
7FC0
FFE0
FFE0
E000
E000
E000
E7E0
E7E0
E7E0
E0E0
E0E0
E0E0
FFE0
FFE0
7FE0
0000
0C00
0C00
0C00
1800
ENDCHAR
STARTCHAR 0123
ENCODING 291
SWIDTH 571 0
DWIDTH 12 0
BBX 10 22 1 -5
BITMAP
0600
0600
0E00
0E00
0000
3FC0
7FC0
FFC0
E1C0
E1C0
E1C0
E1C0
E1C0
E1C0
FFC0
7FC0
3FC0
01C0
01C0
7FC0
7F80
3F00
ENDCHAR
STARTCHAR 012A
ENCODING 298
SWIDTH 285 0
DWIDTH 6 0
BBX 6 19 0 0
BITMAP
FC
FC
00
00
38
38
38
38
38
38
38
38
38
38
38
38
38
38
38
ENDCHAR
STARTCHAR 012B
ENCODING 299
SWIDTH 285 0
DWIDTH 6 0
BBX 6 16 0 0
BITMAP
FC
FC
00
00
30
30
30
30
30
30
30
30
30
30
30
30
ENDCHAR
STARTCHAR 012E
ENCODING 302
SWIDTH 285 0
DWIDTH 6 0
BBX 5 19 0 -4
BITMAP
38
38
38
38
38
38
38
38
38
38
38
38
38
78
78
E0
E0
78
78
ENDCHAR
STARTCHAR 012F
ENCODING 303
SWIDTH 285 0
DWIDTH 6 0
BBX 5 21 0 -4
BITMAP
70
70
70
00
00
30
30
30
30
30
30
30
30
30
30
70
F0
C0
C0
F8
70
ENDCHAR
STARTCHAR 0130
ENCODING 304
SWIDTH 285 0
DWIDTH 6 0
BBX 3 20 2 0
BITMAP
E0
E0
E0
00
00
E0
E0
E0
E0
E0
E0
E0
E0
E0
E0
E0
E0
E0
E0
E0
ENDCHAR
STARTCHAR 0131
ENCODING 305
SWIDTH 285 0
DWIDTH 6 0
BBX 2 12 2 0
BITMAP
C0
C0
C0
C0
C0
C0
C0
C0
C0
C0
C0
C0
ENDCHAR
STARTCHAR 0136
ENCODING 310
SWIDTH 666 0
DWIDTH 14 0
BBX 12 20 2 -5
BITMAP
E1E0
E1C0
E380
E780
EF00
FE00
FC00
FE00
FF00
E700
E380
E3C0
E1C0
E1E0
E0F0
0000
0C00
0C00
1C00
0800
ENDCHAR
STARTCHAR 0137
ENCODING 311
SWIDTH 571 0
DWIDTH 12 0
BBX 10 21 2 -5
BITMAP
C000
C000
C000
C000
C380
C780
CF00
DE00
FC00
FC00
FC00
EE00
EF00
C700
C380
C3C0
0000
1800
1800
3800
1000
ENDCHAR
STARTCHAR 0139
ENCODING 313
SWIDTH 571 0
DWIDTH 12 0
BBX 9 21 2 0
BITMAP
2000
7000
6000
E000
4000
0000
E000
E000
E000
E000
E000
E000
E000
E000
E000
E000
E000
E000
FF80
FF80
FF80
ENDCHAR
STARTCHAR 013A
ENCODING 314
SWIDTH 333 0
DWIDTH 7 0
BBX 5 22 1 0
BITMAP
10
38
70
E0
40
00
E0
E0
E0
E0
E0
E0
E0
E0
E0
E0
E0
E0
E0
78
78
38
ENDCHAR
STARTCHAR 013B
ENCODING 315
SWIDTH 571 0
DWIDTH 12 0
BBX 9 20 2 -5
BITMAP
E000
E000
E000
E000
E000
E000
E000
E000
E000
E000
E000
E000
FF80
FF80
FF80
0000
1C00
1800
1800
1800
ENDCHAR
STARTCHAR 013C
ENCODING 316
SWIDTH 333 0
DWIDTH 7 0
BBX 5 21 1 -5
BITMAP
E0
E0
E0
E0
E0
E0
E0
E0
E0
E0
E0
E0
E0
78
78
38
00
70
70
60
60
ENDCHAR
STARTCHAR 013D
ENCODING 317
SWIDTH 571 0
DWIDTH 12 0
BBX 9 16 2 0
BITMAP
0700
E600
E600
E600
E600
E000
E000
E000
E000
E000
E000
E000
E000
FF80
FF80
FF80
ENDCHAR
STARTCHAR 013E
ENCODING 318
SWIDTH 380 0
DWIDTH 8 0
BBX 7 17 1 0
BITMAP
06
E6
E6
E6
EC
E0
E0
E0
E0
E0
E0
E0
E0
E0
78
78
38
ENDCHAR
STARTCHAR 0141
ENCODING 321
SWIDTH 571 0
DWIDTH 12 0
BBX 12 15 0 0
BITMAP
3800
3800
3800
3800
3900
3F80
3F00
3C00
F800
7800
7800
3800
3FF0
3FF0
3FF0
ENDCHAR
STARTCHAR 0142
ENCODING 322
SWIDTH 333 0
DWIDTH 7 0
BBX 7 16 0 0
BITMAP
38
38
38
38
38
3C
3E
7C
F8
78
38
38
38
3C
1C
0C
ENDCHAR
STARTCHAR 0143
ENCODING 323
SWIDTH 761 0
DWIDTH 16 0
BBX 12 21 2 0
BITMAP
0100
0380
0700
0E00
0400
0000
E070
F070
F070
F870
FC70
FC70
EE70
EE70
E770
E7F0
E3F0
E3F0
E1F0
E0F0
E0F0
ENDCHAR
STARTCHAR 0144
ENCODING 324
SWIDTH 571 0
DWIDTH 12 0
BBX 9 18 2 0
BITMAP
0400
0E00
1C00
3800
1000
0000
FF00
FF80
FF80
C380
C380
C380
C380
C380
C380
C380
C380
C380
ENDCHAR
STARTCHAR 0145
ENCODING 325
SWIDTH 761 0
DWIDTH 16 0
BBX 12 20 2 -5
BITMAP
E070
F070
F070
F870
FC70
FC70
EE70
EE70
E770
E7F0
E3F0
E3F0
E1F0
E0F0
E0F0
0000
0E00
0E00
0C00
0C00
ENDCHAR
STARTCHAR 0146
ENCODING 326
SWIDTH 571 0
DWIDTH 12 0
BBX 9 17 2 -5
BITMAP
FF00
FF80
FF80
C380
C380
C380
C380
C380
C380
C380
C380
C380
0000
1C00
1800
1800
3800
ENDCHAR
STARTCHAR 0147
ENCODING 327
SWIDTH 761 0
DWIDTH 16 0
BBX 12 21 2 0
BITMAP
1100
1980
0F00
0E00
0400
0000
E070
F070
F070
F870
FC70
FC70
EE70
EE70
E770
E7F0
E3F0
E3F0
E1F0
E0F0
E0F0
ENDCHAR
STARTCHAR 0148
ENCODING 328
SWIDTH 571 0
DWIDTH 12 0
BBX 9 18 2 0
BITMAP
2200
7700
3E00
1C00
0800
0000
FF00
FF80
FF80
C380
C380
C380
C380
C380
C380
C380
C380
C380
ENDCHAR
STARTCHAR 014C
ENCODING 332
SWIDTH 714 0
DWIDTH 15 0
BBX 11 19 2 0
BITMAP
3F80
3F80
0000
0000
7FC0
FFE0
FFE0
E0E0
E0E0
E0E0
E0E0
E0E0
E0E0
E0E0
E0E0
E0E0
FFE0
FFE0
7FC0
ENDCHAR
STARTCHAR 014D
ENCODING 333
SWIDTH 571 0
DWIDTH 12 0
BBX 10 16 1 0
BITMAP
3F00
3F00
0000
0000
3F80
7FC0
FFC0
E1C0
E1C0
E1C0
E1C0
E1C0
E1C0
FFC0
7FC0
3F80
ENDCHAR
STARTCHAR 0150
ENCODING 336
SWIDTH 714 0
DWIDTH 15 0
BBX 11 21 2 0
BITMAP
0880
1DC0
1980
3B00
1100
0000
7FC0
FFE0
FFE0
E0E0
E0E0
E0E0
E0E0
E0E0
E0E0
E0E0
E0E0
E0E0
FFE0
FFE0
7FC0
ENDCHAR
STARTCHAR 0151
ENCODING 337
SWIDTH 571 0
DWIDTH 12 0
BBX 10 18 1 0
BITMAP
0880
1DC0
1B80
3300
1100
0000
3F80
7FC0
FFC0
E1C0
E1C0
E1C0
E1C0
E1C0
E1C0
FFC0
7FC0
3F80
ENDCHAR
STARTCHAR 0152
ENCODING 338
SWIDTH 1000 0
DWIDTH 21 0
BBX 17 15 2 0
BITMAP
7FFF80
FFFF80
FFFF80
E0E000
E0E000
E0E000
E0FF80
E0FF80
E0FF80
E0E000
E0E000
E0E000
FFFF80
FFFF80
7FFF80
ENDCHAR
STARTCHAR 0153
ENCODING 339
SWIDTH 904 0
DWIDTH 19 0
BBX 17 12 1 0
BITMAP
3F7E00
7FFF00
FFFF80
E1C380
E1C380
E1FF80
E1FF80
E1C000
E1C000
FFFF00
7FFF00
3F7F00
ENDCHAR
STARTCHAR 0154
ENCODING 340
SWIDTH 666 0
DWIDTH 14 0
BBX 11 21 2 0
BITMAP
0400
0600
0E00
1C00
0800
0000
FF80
FFC0
FFC0
E1C0
E1C0
E1C0
E1C0
FFC0
FFC0
FF00
E380
E380
E1C0
E1C0
E0E0
ENDCHAR
STARTCHAR 0155
ENCODING 341
SWIDTH 380 0
DWIDTH 8 0
BBX 7 18 1 0
BITMAP
08
0C
18
38
10
00
7C
FE
FE
E0
E0
E0
E0
E0
E0
E0
E0
E0
ENDCHAR
STARTCHAR 0156
ENCODING 342
SWIDTH 666 0
DWIDTH 14 0
BBX 11 20 2 -5
BITMAP
FF80
FFC0
FFC0
E1C0
E1C0
E1C0
E1C0
FFC0
FFC0
FF00
E380
E380
E1C0
E1C0
E0E0
0000
1C00
1C00
1800
1800
ENDCHAR
STARTCHAR 0157
ENCODING 343
SWIDTH 380 0
DWIDTH 8 0
BBX 7 17 1 -5
BITMAP
7C
FE
FE
E0
E0
E0
E0
E0
E0
E0
E0
E0
00
E0
C0
C0
C0
ENDCHAR
STARTCHAR 0158
ENCODING 344
SWIDTH 666 0
DWIDTH 14 0
BBX 11 21 2 0
BITMAP
2200
7700
3E00
1C00
0800
0000
FF80
FFC0
FFC0
E1C0
E1C0
E1C0
E1C0
FFC0
FFC0
FF00
E380
E380
E1C0
E1C0
E0E0
ENDCHAR
STARTCHAR 0159
ENCODING 345
SWIDTH 380 0
DWIDTH 8 0
BBX 7 18 1 0
BITMAP
44
EE
7C
38
10
00
7C
FE
FE
E0
E0
E0
E0
E0
E0
E0
E0
E0
ENDCHAR
STARTCHAR 015A
ENCODING 346
SWIDTH 571 0
DWIDTH 12 0
BBX 10 21 1 0
BITMAP
0200
0700
0E00
1C00
0800
0000
7F80
7FC0
FFC0
E000
E000
E000
FF00
7FC0
0FC0
01C0
01C0
01C0
FFC0
FFC0
7F80
ENDCHAR
STARTCHAR 015B
ENCODING 347
SWIDTH 523 0
DWIDTH 11 0
BBX 9 18 1 0
BITMAP
0400
0E00
1C00
1800
1000
0000
7E00
7F00
FF00
E000
E000
7E00
3F00
0700
0380
FF00
FF00
7E00
ENDCHAR
STARTCHAR 015E
ENCODING 350
SWIDTH 571 0
DWIDTH 12 0
BBX 10 19 1 -4
BITMAP
7F80
7FC0
FFC0
E000
E000
E000
FF00
7FC0
0FC0
01C0
01C0
01C0
FFC0
FFC0
7F80
0600
0600
1E00
1E00
ENDCHAR
STARTCHAR 015F
ENCODING 351
SWIDTH 523 0
DWIDTH 11 0
BBX 9 16 1 -4
BITMAP
7E00
7F00
FF00
E000
E000
7E00
3F00
0700
0380
FF00
FF00
7E00
0E00
0E00
3C00
3C00
ENDCHAR
STARTCHAR 0160
ENCODING 352
SWIDTH 571 0
DWIDTH 12 0
BBX 10 21 1 0
BITMAP
1100
3B00
1E00
0E00
0400
0000
7F80
7FC0
FFC0
E000
E000
E000
FF00
7FC0
0FC0
01C0
01C0
01C0
FFC0
FFC0
7F80
ENDCHAR
STARTCHAR 0161
ENCODING 353
SWIDTH 523 0
DWIDTH 11 0
BBX 9 18 1 0
BITMAP
2200
7700
3E00
1C00
0800
0000
7E00
7F00
FF00
E000
E000
7E00
3F00
0700
0380
FF00
FF00
7E00
ENDCHAR
STARTCHAR 0162
ENCODING 354
SWIDTH 619 0
DWIDTH 13 0
BBX 12 19 0 -4
BITMAP
FFF0
FFF0
FFF0
0700
0700
0700
0700
0700
0700
0700
0700
0700
0700
0700
0780
0380
0380
0F80
0F00
ENDCHAR
STARTCHAR 0163
ENCODING 355
SWIDTH 428 0
DWIDTH 9 0
BBX 7 19 1 -4
BITMAP
E0
E0
E0
FE
FE
FE
E0
E0
E0
E0
E0
E0
7E
7E
3E
0C
0C
3C
38
ENDCHAR
STARTCHAR 0164
ENCODING 356
SWIDTH 619 0
DWIDTH 13 0
BBX 12 21 0 0
BITMAP
0880
1DC0
0F80
0700
0200
0000
FFF0
FFF0
FFF0
0700
0700
0700
0700
0700
0700
0700
0700
0700
0700
0700
0700
ENDCHAR
STARTCHAR 0165
ENCODING 357
SWIDTH 428 0
DWIDTH 9 0
BBX 7 17 1 0
BITMAP
06
06
E6
E6
EC
FE
FE
FE
E0
E0
E0
E0
E0
E0
7E
7E
3E
ENDCHAR
STARTCHAR 016A
ENCODING 362
SWIDTH 714 0
DWIDTH 15 0
BBX 11 19 2 0
BITMAP
3F00
3F00
0000
0000
E0E0
E0E0
E0E0
E0E0
E0E0
E0E0
E0E0
E0E0
E0E0
E0E0
E0E0
E0E0
FFE0
FFE0
7FC0
ENDCHAR
STARTCHAR 016B
ENCODING 363
SWIDTH 571 0
DWIDTH 12 0
BBX 10 16 1 0
BITMAP
3F00
3F00
0000
0000
E1C0
E1C0
E1C0
E1C0
E1C0
E1C0
E1C0
E1C0
E1C0
7FC0
7FC0
3FC0
ENDCHAR
STARTCHAR 016E
ENCODING 366
SWIDTH 714 0
DWIDTH 15 0
BBX 11 21 2 0
BITMAP
1E00
1B00
1B00
1B00
1E00
0000
E0E0
E0E0
E0E0
E0E0
E0E0
E0E0
E0E0
E0E0
E0E0
E0E0
E0E0
E0E0
FFE0
FFE0
7FC0
ENDCHAR
STARTCHAR 016F
ENCODING 367
SWIDTH 571 0
DWIDTH 12 0
BBX 10 18 1 0
BITMAP
1E00
1300
1300
1300
1E00
0000
E1C0
E1C0
E1C0
E1C0
E1C0
E1C0
E1C0
E1C0
E1C0
7FC0
7FC0
3FC0
ENDCHAR
STARTCHAR 0170
ENCODING 368
SWIDTH 714 0
DWIDTH 15 0
BBX 11 21 2 0
BITMAP
0880
1DC0
1980
3300
1100
0000
E0E0
E0E0
E0E0
E0E0
E0E0
E0E0
E0E0
E0E0
E0E0
E0E0
E0E0
E0E0
FFE0
FFE0
7FC0
ENDCHAR
STARTCHAR 0171
ENCODING 369
SWIDTH 571 0
DWIDTH 12 0
BBX 10 18 1 0
BITMAP
0880
1DC0
1B80
3300
1200
0000
E1C0
E1C0
E1C0
E1C0
E1C0
E1C0
E1C0
E1C0
E1C0
7FC0
7FC0
3FC0
ENDCHAR
STARTCHAR 0172
ENCODING 370
SWIDTH 714 0
DWIDTH 15 0
BBX 11 19 2 -4
BITMAP
E0E0
E0E0
E0E0
E0E0
E0E0
E0E0
E0E0
E0E0
E0E0
E0E0
E0E0
E0E0
FFE0
FFE0
7FC0
0E00
0E00
0F80
0780
ENDCHAR
STARTCHAR 0173
ENCODING 371
SWIDTH 571 0
DWIDTH 12 0
BBX 10 16 1 -4
BITMAP
E1C0
E1C0
E1C0
E1C0
E1C0
E1C0
E1C0
E1C0
E1C0
7FC0
7FC0
3FC0
0700
0700
03C0
03C0
ENDCHAR
STARTCHAR 0178
ENCODING 376
SWIDTH 619 0
DWIDTH 13 0
BBX 13 19 0 0
BITMAP
1DC0
1DC0
1DC0
0000
F078
7070
78F0
38E0
3DE0
1DC0
1FC0
0F80
0F80
0700
0700
0700
0700
0700
0700
ENDCHAR
STARTCHAR 0179
ENCODING 377
SWIDTH 619 0
DWIDTH 13 0
BBX 11 21 1 0
BITMAP
0200
0700
0E00
0C00
0800
0000
FFE0
FFE0
FFE0
03C0
0380
0700
0F00
1E00
1C00
3C00
7800
7000
FFE0
FFE0
FFE0
ENDCHAR
STARTCHAR 017A
ENCODING 378
SWIDTH 523 0
DWIDTH 11 0
BBX 9 18 1 0
BITMAP
0400
0E00
0C00
1800
0800
0000
FF80
FF80
FF80
0F00
0E00
1C00
3C00
3800
7000
FF80
FF80
FF80
ENDCHAR
STARTCHAR 017B
ENCODING 379
SWIDTH 619 0
DWIDTH 13 0
BBX 11 20 1 0
BITMAP
0E00
0E00
0E00
0000
0000
FFE0
FFE0
FFE0
03C0
0380
0700
0F00
1E00
1C00
3C00
7800
7000
FFE0
FFE0
FFE0
ENDCHAR
STARTCHAR 017C
ENCODING 380
SWIDTH 523 0
DWIDTH 11 0
BBX 9 17 1 0
BITMAP
1C00
1C00
1C00
0000
0000
FF80
FF80
FF80
0F00
0E00
1C00
3C00
3800
7000
FF80
FF80
FF80
ENDCHAR
STARTCHAR 017D
ENCODING 381
SWIDTH 619 0
DWIDTH 13 0
BBX 11 21 1 0
BITMAP
1100
3B80
1F00
0E00
0400
0000
FFE0
FFE0
FFE0
03C0
0380
0700
0F00
1E00
1C00
3C00
7800
7000
FFE0
FFE0
FFE0
ENDCHAR
STARTCHAR 017E
ENCODING 382
SWIDTH 523 0
DWIDTH 11 0
BBX 9 18 1 0
BITMAP
2200
7700
3E00
1C00
0800
0000
FF80
FF80
FF80
0F00
0E00
1C00
3C00
3800
7000
FF80
FF80
FF80
ENDCHAR
STARTCHAR 0192
ENCODING 402
SWIDTH 571 0
DWIDTH 12 0
BBX 10 19 1 -3
BITMAP
0F80
1FC0
1FC0
1C00
1F80
1F80
1F80
1C00
1C00
1C00
1C00
1C00
1C00
1C00
1C00
1C00
FC00
F800
F000
ENDCHAR
STARTCHAR 0218
ENCODING 536
SWIDTH 571 0
DWIDTH 12 0
BBX 10 20 1 -5
BITMAP
7F80
7FC0
FFC0
E000
E000
E000
FF00
7FC0
0FC0
01C0
01C0
01C0
FFC0
FFC0
7F80
0000
0C00
0C00
1C00
0800
ENDCHAR
STARTCHAR 0219
ENCODING 537
SWIDTH 523 0
DWIDTH 11 0
BBX 9 17 1 -5
BITMAP
7E00
7F00
FF00
E000
E000
7E00
3F00
0700
0380
FF00
FF00
7E00
0000
1C00
1800
1800
3800
ENDCHAR
STARTCHAR 021A
ENCODING 538
SWIDTH 619 0
DWIDTH 13 0
BBX 12 20 0 -5
BITMAP
FFF0
FFF0
FFF0
0700
0700
0700
0700
0700
0700
0700
0700
0700
0700
0700
0700
0000
0700
0600
0600
0600
ENDCHAR
STARTCHAR 021B
ENCODING 539
SWIDTH 428 0
DWIDTH 9 0
BBX 7 20 1 -5
BITMAP
E0
E0
E0
FE
FE
FE
E0
E0
E0
E0
E0
E0
7E
7E
3E
00
18
18
38
10
ENDCHAR
STARTCHAR 0237
ENCODING 567
SWIDTH 285 0
DWIDTH 6 0
BBX 4 17 0 -5
BITMAP
30
30
30
30
30
30
30
30
30
30
30
30
30
70
F0
F0
C0
ENDCHAR
STARTCHAR 02C6
ENCODING 710
SWIDTH 523 0
DWIDTH 11 0
BBX 7 5 2 13
BITMAP
10
38
7C
EE
44
ENDCHAR
STARTCHAR 02C7
ENCODING 711
SWIDTH 523 0
DWIDTH 11 0
BBX 7 5 2 13
BITMAP
44
EE
7C
38
10
ENDCHAR
STARTCHAR 02C9
ENCODING 713
SWIDTH 523 0
DWIDTH 11 0
BBX 6 2 2 14
BITMAP
FC
FC
ENDCHAR
STARTCHAR 02D8
ENCODING 728
SWIDTH 523 0
DWIDTH 11 0
BBX 6 3 2 13
BITMAP
CC
FC
7C
ENDCHAR
STARTCHAR 02D9
ENCODING 729
SWIDTH 523 0
DWIDTH 11 0
BBX 3 3 4 14
BITMAP
E0
E0
E0
ENDCHAR
STARTCHAR 02DA
ENCODING 730
SWIDTH 523 0
DWIDTH 11 0
BBX 5 5 3 13
BITMAP
F0
98
98
98
F0
ENDCHAR
STARTCHAR 02DB
ENCODING 731
SWIDTH 523 0
DWIDTH 11 0
BBX 5 6 3 -4
BITMAP
60
E0
C0
C0
F8
70
ENDCHAR
STARTCHAR 02DC
ENCODING 732
SWIDTH 523 0
DWIDTH 11 0
BBX 7 4 2 13
BITMAP
64
F6
DC
98
ENDCHAR
STARTCHAR 02DD
ENCODING 733
SWIDTH 523 0
DWIDTH 11 0
BBX 8 5 2 13
BITMAP
22
77
6E
CC
44
ENDCHAR
STARTCHAR 0300
ENCODING 768
SWIDTH 0 0
DWIDTH 0 0
BBX 5 5 -9 13
BITMAP
40
E0
70
38
10
ENDCHAR
STARTCHAR 0301
ENCODING 769
SWIDTH 0 0
DWIDTH 0 0
BBX 5 5 -8 13
BITMAP
10
38
70
E0
40
ENDCHAR
STARTCHAR 0302
ENCODING 770
SWIDTH 0 0
DWIDTH 0 0
BBX 6 5 -9 13
BITMAP
20
30
78
CC
88
ENDCHAR
STARTCHAR 0303
ENCODING 771
SWIDTH 0 0
DWIDTH 0 0
BBX 8 4 -10 13
BITMAP
32
7B
DE
4C
ENDCHAR
STARTCHAR 0304
ENCODING 772
SWIDTH 0 0
DWIDTH 0 0
BBX 6 2 -9 14
BITMAP
FC
FC
ENDCHAR
STARTCHAR 0306
ENCODING 774
SWIDTH 0 0
DWIDTH 0 0
BBX 6 3 -9 13
BITMAP
CC
FC
F8
ENDCHAR
STARTCHAR 0307
ENCODING 775
SWIDTH 0 0
DWIDTH 0 0
BBX 3 3 -8 14
BITMAP
E0
E0
E0
ENDCHAR
STARTCHAR 0308
ENCODING 776
SWIDTH 0 0
DWIDTH 0 0
BBX 6 3 -9 13
BITMAP
CC
CC
CC
ENDCHAR
STARTCHAR 030A
ENCODING 778
SWIDTH 0 0
DWIDTH 0 0
BBX 5 5 -9 13
BITMAP
78
C8
C8
C8
78
ENDCHAR
STARTCHAR 030B
ENCODING 779
SWIDTH 0 0
DWIDTH 0 0
BBX 8 5 -10 13
BITMAP
12
3B
77
EE
44
ENDCHAR
STARTCHAR 030C
ENCODING 780
SWIDTH 0 0
DWIDTH 0 0
BBX 6 5 -9 13
BITMAP
88
CC
78
30
20
ENDCHAR
STARTCHAR 0326
ENCODING 806
SWIDTH 0 0
DWIDTH 0 0
BBX 3 4 -8 -5
BITMAP
60
E0
E0
40
ENDCHAR
STARTCHAR 0327
ENCODING 807
SWIDTH 0 0
DWIDTH 0 0
BBX 4 5 -8 -4
BITMAP
30
30
30
F0
E0
ENDCHAR
STARTCHAR 0328
ENCODING 808
SWIDTH 0 0
DWIDTH 0 0
BBX 4 6 -8 -4
BITMAP
60
E0
C0
C0
F0
70
ENDCHAR
STARTCHAR 03C0
ENCODING 960
SWIDTH 619 0
DWIDTH 13 0
BBX 9 12 2 0
BITMAP
FF80
FF80
FF80
C380
C380
C380
C380
C380
C380
C380
C380
C380
ENDCHAR
STARTCHAR 1E9E
ENCODING 7838
SWIDTH 714 0
DWIDTH 15 0
BBX 12 15 2 0
BITMAP
7FC0
FFC0
FFC0
E380
E380
E700
EFC0
EFE0
EFF0
E070
E070
E070
EFF0
EFE0
E7C0
ENDCHAR
STARTCHAR 2013
ENCODING 8211
SWIDTH 571 0
DWIDTH 12 0
BBX 10 2 1 6
BITMAP
FFC0
FFC0
ENDCHAR
STARTCHAR 2014
ENCODING 8212
SWIDTH 1000 0
DWIDTH 21 0
BBX 19 2 1 6
BITMAP
FFFFE0
FFFFE0
ENDCHAR
STARTCHAR 2018
ENCODING 8216
SWIDTH 285 0
DWIDTH 6 0
BBX 4 6 1 10
BITMAP
30
70
70
60
E0
E0
ENDCHAR
STARTCHAR 2019
ENCODING 8217
SWIDTH 285 0
DWIDTH 6 0
BBX 4 6 1 10
BITMAP
70
70
E0
E0
C0
C0
ENDCHAR
STARTCHAR 201A
ENCODING 8218
SWIDTH 285 0
DWIDTH 6 0
BBX 5 6 0 -3
BITMAP
38
30
70
70
60
E0
ENDCHAR
STARTCHAR 201C
ENCODING 8220
SWIDTH 476 0
DWIDTH 10 0
BBX 9 6 1 10
BITMAP
3380
7300
7300
6700
E700
EE00
ENDCHAR
STARTCHAR 201D
ENCODING 8221
SWIDTH 476 0
DWIDTH 10 0
BBX 9 6 1 10
BITMAP
7380
7700
E700
E600
C600
CE00
ENDCHAR
STARTCHAR 201E
ENCODING 8222
SWIDTH 476 0
DWIDTH 10 0
BBX 9 6 0 -3
BITMAP
3B80
3380
7380
7300
6700
E600
ENDCHAR
STARTCHAR 2020
ENCODING 8224
SWIDTH 476 0
DWIDTH 10 0
BBX 8 17 1 -2
BITMAP
1C
1C
1C
1C
FF
FF
1C
1C
1C
1C
1C
1C
1C
1C
1C
1C
1C
ENDCHAR
STARTCHAR 2021
ENCODING 8225
SWIDTH 476 0
DWIDTH 10 0
BBX 8 17 1 -2
BITMAP
1C
1C
1C
1C
FF
FF
1C
1C
1C
1C
1C
FF
FF
1C
1C
1C
1C
ENDCHAR
STARTCHAR 2022
ENCODING 8226
SWIDTH 380 0
DWIDTH 8 0
BBX 5 5 1 5
BITMAP
F8
F8
F8
F8
F8
ENDCHAR
STARTCHAR 2026
ENCODING 8230
SWIDTH 857 0
DWIDTH 18 0
BBX 15 3 1 0
BITMAP
F38E
F38E
F38E
ENDCHAR
STARTCHAR 2030
ENCODING 8240
SWIDTH 1238 0
DWIDTH 26 0
BBX 24 15 1 0
BITMAP
783000
FC3800
CC7000
CC7000
CCE000
CCE000
CDDF1F
FDDFBF
7B99BB
0399BB
0719BB
0719BB
0E19BB
0E1FBF
041F1F
ENDCHAR
STARTCHAR 2039
ENCODING 8249
SWIDTH 333 0
DWIDTH 7 0
BBX 5 11 1 1
BITMAP
10
18
38
70
E0
E0
E0
70
38
18
10
ENDCHAR
STARTCHAR 203A
ENCODING 8250
SWIDTH 333 0
DWIDTH 7 0
BBX 6 11 1 1
BITMAP
40
C0
E0
70
38
1C
38
70
E0
C0
40
ENDCHAR
STARTCHAR 2044
ENCODING 8260
SWIDTH 142 0
DWIDTH 3 0
BBX 9 15 -3 0
BITMAP
0100
0380
0300
0700
0600
0E00
0C00
1C00
1800
3800
3000
7000
6000
E000
4000
ENDCHAR
STARTCHAR 2070
ENCODING 8304
SWIDTH 380 0
DWIDTH 8 0
BBX 6 9 1 6
BITMAP
78
FC
CC
CC
CC
CC
CC
FC
78
ENDCHAR
STARTCHAR 2074
ENCODING 8308
SWIDTH 380 0
DWIDTH 8 0
BBX 6 9 1 6
BITMAP
30
70
60
60
EC
CC
FC
FC
0C
ENDCHAR
STARTCHAR 2080
ENCODING 8320
SWIDTH 380 0
DWIDTH 8 0
BBX 6 9 1 0
BITMAP
78
FC
CC
CC
CC
CC
CC
FC
78
ENDCHAR
STARTCHAR 2081
ENCODING 8321
SWIDTH 380 0
DWIDTH 8 0
BBX 6 9 1 0
BITMAP
70
F0
30
30
30
30
30
FC
FC
ENDCHAR
STARTCHAR 2082
ENCODING 8322
SWIDTH 380 0
DWIDTH 8 0
BBX 6 9 1 0
BITMAP
F8
FC
0C
1C
FC
E0
C0
FC
FC
ENDCHAR
STARTCHAR 2083
ENCODING 8323
SWIDTH 380 0
DWIDTH 8 0
BBX 6 9 1 0
BITMAP
F8
FC
0C
7C
7C
0C
0C
FC
F8
ENDCHAR
STARTCHAR 2084
ENCODING 8324
SWIDTH 380 0
DWIDTH 8 0
BBX 6 9 1 0
BITMAP
30
70
60
60
EC
CC
FC
FC
0C
ENDCHAR
STARTCHAR 20AC
ENCODING 8364
SWIDTH 571 0
DWIDTH 12 0
BBX 11 15 0 0
BITMAP
1FE0
3FE0
3FE0
3800
3800
FFC0
FFC0
3800
FF80
FF80
3800
3800
3FE0
3FE0
1FE0
ENDCHAR
STARTCHAR 20BA
ENCODING 8378
SWIDTH 571 0
DWIDTH 12 0
BBX 11 15 0 0
BITMAP
3800
3800
3980
3F80
3C00
F980
7F80
3E00
F8E0
78E0
38E0
38E0
3FE0
3FC0
3F00
ENDCHAR
STARTCHAR 20BD
ENCODING 8381
SWIDTH 571 0
DWIDTH 12 0
BBX 10 15 1 0
BITMAP
7F80
7FC0
7FC0
71C0
71C0
71C0
FFC0
FFC0
FF80
7000
FF00
FF00
7000
7000
7000
ENDCHAR
STARTCHAR 2113
ENCODING 8467
SWIDTH 333 0
DWIDTH 7 0
BBX 5 16 1 0
BITMAP
E0
E0
E0
E0
E0
E0
E0
E0
E0
E0
E0
E0
E0
78
78
38
ENDCHAR
STARTCHAR 2122
ENCODING 8482
SWIDTH 809 0
DWIDTH 17 0
BBX 16 8 0 7
BITMAP
FFC7
FFCF
39EF
39EF
39FF
39BF
39B7
3987
ENDCHAR
STARTCHAR 2126
ENCODING 8486
SWIDTH 714 0
DWIDTH 15 0
BBX 13 15 1 0
BITMAP
3FE0
7FF0
7FF0
7070
7070
7070
7070
7070
7070
7070
7070
78F0
F8F8
F9F8
F9F8
ENDCHAR
STARTCHAR 212E
ENCODING 8494
SWIDTH 857 0
DWIDTH 18 0
BBX 16 15 1 0
BITMAP
07E0
1818
3004
6006
6007
6007
E007
FFFF
E000
6000
6000
6000
3004
1818
07E0
ENDCHAR
STARTCHAR 2202
ENCODING 8706
SWIDTH 571 0
DWIDTH 12 0
BBX 10 16 1 0
BITMAP
3E00
7F80
7F80
01C0
01C0
1FC0
7FC0
7FC0
E1C0
E1C0
E1C0
E1C0
E1C0
FFC0
7F80
3F80
ENDCHAR
STARTCHAR 2206
ENCODING 8710
SWIDTH 666 0
DWIDTH 14 0
BBX 14 15 0 0
BITMAP
07C0
0FC0
0FC0
0EE0
1CE0
1CE0
1CE0
3870
3870
3870
3838
7038
7FF8
7FFC
FFFC
ENDCHAR
STARTCHAR 220F
ENCODING 8719
SWIDTH 714 0
DWIDTH 15 0
BBX 11 17 2 -2
BITMAP
FFE0
FFE0
FFE0
E0E0
E0E0
E0E0
E0E0
E0E0
E0E0
E0E0
E0E0
E0E0
E0E0
E0E0
E0E0
E0E0
E0E0
ENDCHAR
STARTCHAR 2211
ENCODING 8721
SWIDTH 619 0
DWIDTH 13 0
BBX 11 17 1 -2
BITMAP
FFE0
FFE0
FFE0
7000
3800
3C00
1C00
0E00
0F00
0E00
1C00
3C00
3800
7000
FFE0
FFE0
FFE0
ENDCHAR
STARTCHAR 2212
ENCODING 8722
SWIDTH 571 0
DWIDTH 12 0
BBX 10 2 1 7
BITMAP
FFC0
FFC0
ENDCHAR
STARTCHAR 2215
ENCODING 8725
SWIDTH 142 0
DWIDTH 3 0
BBX 9 15 -3 0
BITMAP
0100
0380
0300
0700
0600
0E00
0C00
1C00
1800
3800
3000
7000
6000
E000
4000
ENDCHAR
STARTCHAR 2219
ENCODING 8729
SWIDTH 285 0
DWIDTH 6 0
BBX 4 3 1 6
BITMAP
F0
F0
F0
ENDCHAR
STARTCHAR 221A
ENCODING 8730
SWIDTH 619 0
DWIDTH 13 0
BBX 13 17 0 0
BITMAP
0020
0038
0030
0030
0070
0060
00E0
00E0
00C0
F1C0
F980
3980
1B80
1F00
0F00
0F00
0E00
ENDCHAR
STARTCHAR 221E
ENCODING 8734
SWIDTH 619 0
DWIDTH 13 0
BBX 11 7 1 4
BITMAP
FBC0
FFE0
CE60
CE60
CE60
FFE0
FBC0
ENDCHAR
STARTCHAR 222B
ENCODING 8747
SWIDTH 476 0
DWIDTH 10 0
BBX 10 21 0 -5
BITMAP
0780
0FC0
0FC0
0C00
0C00
0C00
0C00
0C00
0C00
0C00
0C00
0C00
0C00
0C00
0C00
0C00
0C00
0C00
FC00
FC00
7800
ENDCHAR
STARTCHAR 2248
ENCODING 8776
SWIDTH 571 0
DWIDTH 12 0
BBX 10 9 1 3
BITMAP
3880
7CC0
FFC0
CF80
7F80
7CC0
FFC0
CF80
4700
ENDCHAR
STARTCHAR 2260
ENCODING 8800
SWIDTH 571 0
DWIDTH 12 0
BBX 10 12 1 1
BITMAP
0380
0300
FFC0
FFC0
0E00
0C00
1C00
FFC0
FFC0
3800
7000
1000
ENDCHAR
STARTCHAR 2264
ENCODING 8804
SWIDTH 571 0
DWIDTH 12 0
BBX 10 14 1 0
BITMAP
0080
03C0
0F80
3E00
F800
E000
F800
3E00
0F80
03C0
0080
0000
FFC0
FFC0
ENDCHAR
STARTCHAR 2265
ENCODING 8805
SWIDTH 571 0
DWIDTH 12 0
BBX 10 14 1 0
BITMAP
4000
F000
7C00
1F00
07C0
01C0
07C0
1F00
7C00
F000
4000
0000
FFC0
FFC0
ENDCHAR
STARTCHAR 25CA
ENCODING 9674
SWIDTH 571 0
DWIDTH 12 0
BBX 11 15 1 0
BITMAP
1E00
1E00
3F00
3300
7380
6180
E1C0
C0E0
E1C0
6180
7380
3300
3F00
1E00
1E00
ENDCHAR
STARTCHAR F000
ENCODING 61440
SWIDTH 714 0
DWIDTH 15 0
BBX 13 11 1 2
BITMAP
0200
0600
0700
0F00
0F80
1FC0
1FC0
3FE0
7FE0
7FF0
FFF8
ENDCHAR
STARTCHAR FB01
ENCODING 64257
SWIDTH 714 0
DWIDTH 15 0
BBX 11 17 2 0
BITMAP
00E0
7CE0
FCE0
FC00
C000
FCE0
FCE0
FCE0
C0E0
C0E0
C0E0
C0E0
C0E0
C0E0
C0E0
C0E0
C0E0
ENDCHAR
STARTCHAR FB02
ENCODING 64258
SWIDTH 714 0
DWIDTH 15 0
BBX 12 16 2 0
BITMAP
7CE0
FCE0
FCE0
C0E0
FCE0
FCE0
FCE0
C0E0
C0E0
C0E0
C0E0
C0E0
C0E0
C0F0
C070
C030
ENDCHAR
ENDFONT
